<svg width="2658" height="725" viewBox="0 0 2658 725" fill="none" xmlns="http://www.w3.org/2000/svg">
<path d="M749.964 1.34777C837.038 1.38542 987.984 1.18963 1073.51 1.27247C1084.8 1.41555 1095 10.4144 1098.37 22.9978C1098.87 25.0009 1099.19 26.8232 1099.42 28.8941C1099.53 29.9785 1099.53 31.1382 1099.59 32.2301C1099.16 32.2677 1100.56 32.3054 1098.63 32.3355C1096.7 32.3054 1098.09 32.2677 1097.66 32.2376L1097.66 32.1397L1097.65 31.9364C1097.59 31.0252 1097.6 30.0463 1097.51 29.1426C1097.33 27.6591 1097.08 25.8819 1096.71 24.4436C1093.9 12.41 1084.14 3.62196 1073.48 3.50148C988.517 3.36593 836.279 3.44123 749.964 3.36593C749.488 3.36593 749.103 2.9141 749.103 2.35685C749.103 1.7996 749.488 1.34777 749.964 1.34777Z" fill="#719E1B"/>
<path d="M749.964 1.34777C837.038 1.38542 987.984 1.18963 1073.51 1.27247C1084.8 1.41555 1095 10.4144 1098.37 22.9978C1098.87 25.0009 1099.19 26.8232 1099.42 28.8941C1099.53 29.9785 1099.53 31.1382 1099.59 32.2301C1099.16 32.2677 1100.56 32.3054 1098.63 32.3355C1096.7 32.3054 1098.09 32.2677 1097.66 32.2376L1097.66 32.1397L1097.65 31.9364C1097.59 31.0252 1097.6 30.0463 1097.51 29.1426C1097.33 27.6591 1097.08 25.8819 1096.71 24.4436C1093.9 12.41 1084.14 3.62196 1073.48 3.50148C988.517 3.36593 836.279 3.44123 749.964 3.36593C749.488 3.36593 749.103 2.9141 749.103 2.35685C749.103 1.7996 749.488 1.34777 749.964 1.34777Z" fill="#719E1B"/>
<path d="M1215.05 153.139H806.486C805.952 153.139 805.521 152.634 805.521 152.009C805.521 151.384 805.952 150.88 806.486 150.88H1215.05C1215.59 150.88 1216.02 151.384 1216.02 152.009C1216.02 152.634 1215.59 153.139 1215.05 153.139Z" fill="#719E1B"/>
<path d="M1907.52 452.451H1387.51C1386.97 452.451 1386.54 451.947 1386.54 451.322C1386.54 450.696 1386.97 450.192 1387.51 450.192H1907.52C1908.06 450.192 1908.49 450.696 1908.49 451.322C1908.49 451.947 1908.06 452.451 1907.52 452.451Z" fill="#719E1B"/>
<path d="M1277.69 452.451H749.965C749.431 452.451 749 451.947 749 451.322C749 450.696 749.431 450.192 749.965 450.192H1277.69C1278.23 450.192 1278.66 450.696 1278.66 451.322C1278.66 451.947 1278.23 452.451 1277.69 452.451Z" fill="#719E1B"/>
<path d="M1051.69 452.259H523.965C523.431 452.259 523 451.755 523 451.13C523 450.505 523.431 450 523.965 450H1051.69C1052.23 450 1052.66 450.505 1052.66 451.13C1052.66 451.755 1052.23 452.259 1051.69 452.259Z" fill="#719E1B"/>
<path d="M1077.86 602.111H806.222C805.689 602.111 805.258 601.607 805.258 600.982C805.258 600.357 805.689 599.852 806.222 599.852H1077.86C1078.39 599.852 1078.82 600.357 1078.82 600.982C1078.82 601.607 1078.39 602.111 1077.86 602.111Z" fill="#719E1B"/>
<path d="M771.572 2.35675L771.675 31.7405C771.662 33.2165 769.772 33.2391 769.746 31.7481L769.849 2.35675C769.868 1.04646 771.553 1.02386 771.572 2.35675Z" fill="#719E1B"/>
<path d="M846.434 182.748C845.901 182.748 845.47 182.244 845.47 181.619V152.235C845.47 151.61 845.901 151.106 846.434 151.106C846.968 151.106 847.399 151.61 847.399 152.235V181.619C847.399 182.244 846.968 182.748 846.434 182.748Z" fill="#719E1B"/>
<path d="M902.434 2.35682L902.524 31.7406C902.511 33.2166 900.62 33.2391 900.595 31.7481L900.685 2.35682C900.704 1.02394 902.408 1.00887 902.434 2.35682Z" fill="#719E1B"/>
<path d="M1624.44 2.35691L1624.5 31.7407C1624.49 33.2166 1622.6 33.2468 1622.57 31.7557C1622.57 31.7557 1622.7 2.36444 1622.7 2.35691C1622.72 1.03908 1624.42 1.01649 1624.44 2.35691Z" fill="#719E1B"/>
<path d="M1624.45 152.009C1624.45 152.009 1624.49 181.393 1624.49 181.401C1624.47 182.877 1622.58 182.899 1622.56 181.401L1622.69 152.009C1622.71 150.676 1624.43 150.654 1624.45 152.009Z" fill="#719E1B"/>
<path d="M1673.64 153.139H1521.63C1521.1 153.139 1520.67 152.634 1520.67 152.009C1520.67 151.384 1521.1 150.88 1521.63 150.88H1673.64C1687.24 150.88 1698.3 137.928 1698.3 122.001V1.12957C1698.3 0.504539 1698.73 0 1699.26 0C1699.8 0 1700.23 0.504539 1700.23 1.12957V122.001C1700.22 139.178 1688.29 153.139 1673.64 153.139Z" fill="#719E1B"/>
<path d="M1887.74 2.35694L1887.86 31.7407C1887.86 32.441 1887.38 33.0134 1886.78 33.0134C1886.18 33.0134 1885.7 32.4486 1885.7 31.7482C1885.7 31.7482 1885.82 2.35694 1885.82 2.34941C1885.84 0.888506 1887.72 0.873444 1887.74 2.35694Z" fill="#719E1B"/>
<path d="M1887.63 152.009L1887.74 181.393C1887.73 182.869 1885.84 182.892 1885.81 181.401L1885.92 152.009C1885.94 150.706 1887.61 150.691 1887.63 152.009Z" fill="#719E1B"/>
<path d="M1822.27 451.608C1822.27 451.608 1822.31 480.991 1822.31 480.999C1822.29 482.475 1820.41 482.49 1820.38 481.006L1820.51 451.615C1820.53 450.275 1822.24 450.252 1822.27 451.608Z" fill="#719E1B"/>
<path d="M1493.55 451.608L1493.65 480.992C1493.64 482.468 1491.75 482.49 1491.72 480.999L1491.82 451.608C1491.85 450.305 1493.52 450.282 1493.55 451.608Z" fill="#719E1B"/>
<path d="M967.843 451.608L967.946 480.991C967.933 482.467 966.042 482.49 966.017 480.999L966.119 451.608C966.145 450.305 967.817 450.282 967.843 451.608Z" fill="#719E1B"/>
<path d="M1887.67 451.321L1887.7 632.459C1887.7 633.084 1887.27 633.588 1886.74 633.588C1886.2 633.588 1885.77 633.084 1885.77 632.459L1885.88 451.321C1885.88 450.742 1886.27 450.275 1886.77 450.275C1887.27 450.275 1887.67 450.742 1887.67 451.321Z" fill="#719E1B"/>
<path d="M1036.61 153.139C1036.07 153.139 1035.64 152.634 1035.64 152.009V2.35686C1035.64 1.73183 1036.07 1.22729 1036.61 1.22729C1037.14 1.22729 1037.57 1.73183 1037.57 2.35686V152.009C1037.57 152.634 1037.14 153.139 1036.61 153.139Z" fill="#719E1B"/>
<path d="M846.435 34.4892C845.901 34.4892 845.47 33.9847 845.47 33.3597V32.3732C845.47 16.4463 834.402 3.48643 820.801 3.48643H816.718C816.184 3.48643 815.753 2.98189 815.753 2.35686C815.753 1.73183 816.184 1.22729 816.718 1.22729H820.801C835.464 1.22729 847.399 15.1963 847.399 32.3732V33.3597C847.399 33.9847 846.968 34.4892 846.435 34.4892Z" fill="#719E1B"/>
<path d="M910.523 184.142C909.99 184.142 909.559 183.637 909.559 183.012V182.026C909.559 166.099 898.491 153.139 884.89 153.139H880.806C880.273 153.139 879.842 152.634 879.842 152.009C879.842 151.384 880.273 150.88 880.806 150.88H884.89C899.552 150.88 911.488 164.849 911.488 182.026V183.012C911.488 183.637 911.057 184.142 910.523 184.142Z" fill="#719E1B"/>
<path d="M1099.48 152.235L1099.57 181.619C1099.55 183.095 1097.66 183.117 1097.64 181.626L1097.73 152.235C1097.75 150.91 1099.45 150.887 1099.48 152.235Z" fill="#719E1B"/>
<path d="M902.454 451.321L902.518 631.691C902.518 632.316 902.087 632.82 901.553 632.82C901.02 632.82 900.589 632.316 900.589 631.691L900.653 451.321C900.653 450.742 901.058 450.267 901.553 450.275C902.055 450.275 902.454 450.742 902.454 451.321Z" fill="#719E1B"/>
<path d="M1681.58 151.067L2126.22 151C2127.76 151 2129 151.447 2129 152C2129 152.553 2127.76 153 2126.22 153L1681.58 152.933C1680.15 152.933 1678.98 152.513 1679 152C1679 151.48 1680.15 151.067 1681.58 151.067Z" fill="#719E1B"/>
<path d="M1175.55 184.142C1175.02 184.142 1174.59 183.637 1174.59 183.012V182.025C1174.59 166.099 1163.52 153.139 1149.92 153.139H1145.84C1145.3 153.139 1144.87 152.634 1144.87 152.009C1144.87 151.384 1145.3 150.88 1145.84 150.88H1149.92C1164.58 150.88 1176.52 164.849 1176.52 182.025V183.012C1176.52 183.637 1176.09 184.142 1175.55 184.142Z" fill="#719E1B"/>
<path d="M1240.52 184.142C1239.99 184.142 1239.56 183.637 1239.56 183.012V182.026C1239.56 166.099 1228.49 153.139 1214.89 153.139H1210.81C1210.27 153.139 1209.84 152.634 1209.84 152.009C1209.84 151.384 1210.27 150.88 1210.81 150.88H1214.89C1229.55 150.88 1241.49 164.849 1241.49 182.026V183.012C1241.49 183.637 1241.06 184.142 1240.52 184.142Z" fill="#719E1B"/>
<path d="M1307.41 483.454C1306.88 483.454 1306.45 482.949 1306.45 482.324V481.338C1306.45 465.411 1295.38 452.451 1281.78 452.451H1277.7C1277.16 452.451 1276.73 451.947 1276.73 451.322C1276.73 450.696 1277.16 450.192 1277.7 450.192H1281.78C1296.44 450.192 1308.38 464.161 1308.38 481.338V482.324C1308.38 482.949 1307.95 483.454 1307.41 483.454Z" fill="#719E1B"/>
<path d="M1098.68 483.262C1098.15 483.262 1097.72 482.757 1097.72 482.132V481.146C1097.72 465.219 1086.65 452.259 1073.05 452.259H1068.96C1068.43 452.259 1068 451.755 1068 451.13C1068 450.505 1068.43 450 1068.96 450H1073.05C1087.71 450 1099.65 463.969 1099.65 481.146V482.132C1099.65 482.757 1099.22 483.262 1098.68 483.262Z" fill="#719E1B"/>
<path d="M1240.4 483.454C1239.86 483.454 1239.43 482.949 1239.43 482.324V481.338C1239.43 464.168 1251.36 450.192 1266.03 450.192H1270.11C1270.65 450.192 1271.08 450.696 1271.08 451.322C1271.08 451.947 1270.65 452.451 1270.11 452.451H1266.03C1252.43 452.451 1241.36 465.411 1241.36 481.338V482.324C1241.36 482.949 1240.93 483.454 1240.4 483.454Z" fill="#719E1B"/>
<path d="M847.605 483.454C847.071 483.454 846.64 482.949 846.64 482.324V481.338C846.64 465.411 835.572 452.451 821.971 452.451H817.887C817.354 452.451 816.923 451.947 816.923 451.322C816.923 450.696 817.354 450.192 817.887 450.192H821.971C836.633 450.192 848.569 464.161 848.569 481.338V482.324C848.569 482.949 848.138 483.454 847.605 483.454Z" fill="#719E1B"/>
<path d="M1107.57 633.114C1107.03 633.114 1106.6 632.609 1106.6 631.984V630.998C1106.6 615.071 1095.53 602.111 1081.93 602.111H1077.85C1077.32 602.111 1076.88 601.607 1076.88 600.982C1076.88 600.357 1077.32 599.852 1077.85 599.852H1081.93C1096.6 599.852 1108.53 613.821 1108.53 630.998V631.984C1108.53 632.609 1108.1 633.114 1107.57 633.114Z" fill="#719E1B"/>
<path d="M780.589 483.454C780.055 483.454 779.624 482.949 779.624 482.324V481.338C779.624 464.168 791.553 450.192 806.222 450.192H810.306C810.839 450.192 811.27 450.696 811.27 451.322C811.27 451.947 810.839 452.451 810.306 452.451H806.222C792.621 452.451 781.553 465.411 781.553 481.338V482.324C781.553 482.949 781.122 483.454 780.589 483.454Z" fill="#719E1B"/>
<path d="M780.589 633.114C780.055 633.114 779.624 632.609 779.624 631.984V630.998C779.624 613.829 791.553 599.852 806.222 599.852H810.306C810.839 599.852 811.27 600.357 811.27 600.982C811.27 601.607 810.839 602.111 810.306 602.111H806.222C792.621 602.111 781.553 615.071 781.553 630.998V631.984C781.553 632.609 781.122 633.114 780.589 633.114Z" fill="#719E1B"/>
<path d="M844.897 633.114C844.363 633.114 843.933 632.609 843.933 631.984V630.998C843.933 613.829 855.862 599.852 870.531 599.852H874.614C875.148 599.852 875.579 600.357 875.579 600.982C875.579 601.607 875.148 602.111 874.614 602.111H870.531C856.929 602.111 845.862 615.071 845.862 630.998V631.984C845.862 632.609 845.431 633.114 844.897 633.114Z" fill="#719E1B"/>
<path d="M976.73 633.114C976.196 633.114 975.766 632.609 975.766 631.984V630.998C975.766 613.829 987.695 599.852 1002.36 599.852H1006.45C1006.98 599.852 1007.41 600.357 1007.41 600.982C1007.41 601.607 1006.98 602.111 1006.45 602.111H1002.36C988.762 602.111 977.695 615.071 977.695 630.998V631.984C977.695 632.609 977.264 633.114 976.73 633.114Z" fill="#719E1B"/>
<path d="M1042.97 483.454C1042.43 483.454 1042 482.949 1042 482.324V481.338C1042 464.168 1053.93 450.192 1068.6 450.192H1072.68C1073.22 450.192 1073.65 450.696 1073.65 451.322C1073.65 451.947 1073.22 452.451 1072.68 452.451H1068.6C1055 452.451 1043.93 465.411 1043.93 481.338V482.324C1043.93 482.949 1043.5 483.454 1042.97 483.454Z" fill="#719E1B"/>
<path d="M977.496 34.4892C976.962 34.4892 976.531 33.9847 976.531 33.3597V32.3732C976.531 15.2038 988.461 1.22729 1003.13 1.22729H1007.21C1007.75 1.22729 1008.18 1.73183 1008.18 2.35686C1008.18 2.98189 1007.75 3.48643 1007.21 3.48643H1003.13C989.528 3.48643 978.461 16.4463 978.461 32.3732V33.3597C978.461 33.9847 978.03 34.4892 977.496 34.4892Z" fill="#719E1B"/>
<path d="M1568.42 34.4892C1567.88 34.4892 1567.45 33.9847 1567.45 33.3597V32.3732C1567.45 15.2038 1579.38 1.22729 1594.05 1.22729H1598.13C1598.67 1.22729 1599.1 1.73183 1599.1 2.35686C1599.1 2.98189 1598.67 3.48643 1598.13 3.48643H1594.05C1580.45 3.48643 1569.38 16.4463 1569.38 32.3732V33.3597C1569.38 33.9847 1568.94 34.4892 1568.42 34.4892Z" fill="#719E1B"/>
<path d="M1491.74 183.012C1491.34 165.624 1503.31 151.045 1518.2 151.007C1519.21 150.985 1521.41 151.023 1522.43 151.015C1522.9 151.015 1523.28 151.459 1523.28 152.009C1523.28 152.559 1522.9 153.003 1522.43 153.003L1519.61 153.011C1518.81 152.98 1517.65 153.056 1516.84 153.108C1507.7 153.606 1499.24 160.729 1495.67 170.549C1494.24 174.487 1493.61 178.735 1493.66 183.012C1493.68 184.525 1491.75 184.556 1491.74 183.012Z" fill="#719E1B"/>
<path d="M1766.02 34.4892C1765.49 34.4892 1765.06 33.9847 1765.06 33.3597V32.3732C1765.06 15.2038 1776.99 1.22729 1791.66 1.22729H1795.74C1796.27 1.22729 1796.7 1.73183 1796.7 2.35686C1796.7 2.98189 1796.27 3.48643 1795.74 3.48643H1791.66C1778.06 3.48643 1766.99 16.4463 1766.99 32.3732V33.3597C1766.99 33.9847 1766.56 34.4892 1766.02 34.4892Z" fill="#719E1B"/>
<path d="M1831.65 184.142C1831.12 184.142 1830.69 183.637 1830.69 183.012V182.026C1830.69 164.856 1842.61 150.88 1857.28 150.88H1861.37C1861.9 150.88 1862.33 151.384 1862.33 152.009C1862.33 152.634 1861.9 153.139 1861.37 153.139H1857.28C1843.68 153.139 1832.61 166.099 1832.61 182.026V183.012C1832.61 183.637 1832.18 184.142 1831.65 184.142Z" fill="#719E1B"/>
<path d="M1766.02 483.454C1765.49 483.454 1765.06 482.949 1765.06 482.324V481.338C1765.06 464.168 1776.99 450.192 1791.66 450.192H1795.74C1796.27 450.192 1796.7 450.696 1796.7 451.322C1796.7 451.947 1796.27 452.451 1795.74 452.451H1791.66C1778.06 452.451 1766.99 465.411 1766.99 481.338V482.324C1766.99 482.949 1766.56 483.454 1766.02 483.454Z" fill="#719E1B"/>
<path d="M1699.78 483.454C1699.25 483.454 1698.82 482.949 1698.82 482.324V481.338C1698.82 464.168 1710.75 450.192 1725.42 450.192H1729.5C1730.04 450.192 1730.47 450.696 1730.47 451.322C1730.47 451.947 1730.04 452.451 1729.5 452.451H1725.42C1711.82 452.451 1700.75 465.411 1700.75 481.338V482.324C1700.75 482.949 1700.32 483.454 1699.78 483.454Z" fill="#719E1B"/>
<path d="M1568.42 633.114C1567.88 633.114 1567.45 632.609 1567.45 631.984V630.998C1567.45 613.829 1579.38 599.852 1594.05 599.852H1598.13C1598.67 599.852 1599.1 600.357 1599.1 600.982C1599.1 601.607 1598.67 602.111 1598.13 602.111H1594.05C1580.45 602.111 1569.38 615.071 1569.38 630.998V631.984C1569.38 632.609 1568.94 633.114 1568.42 633.114Z" fill="#719E1B"/>
<path d="M1687.96 631.984C1687.63 614.514 1699.5 600.01 1714.47 599.95C1715.5 599.92 1717.68 599.965 1718.71 599.957C1719.19 599.957 1719.59 600.417 1719.59 600.981C1719.59 601.546 1719.19 602.006 1718.71 602.006H1715.89C1715.1 601.968 1713.92 602.051 1713.12 602.096C1703.97 602.578 1695.51 609.687 1691.91 619.506C1690.47 623.445 1689.83 627.699 1689.89 631.984C1689.89 633.49 1687.97 633.52 1687.96 631.984Z" fill="#719E1B"/>
<path d="M1569.11 483.454C1568.58 483.454 1568.14 482.949 1568.14 482.324V481.338C1568.14 465.411 1557.08 452.451 1543.48 452.451H1539.39C1538.86 452.451 1538.43 451.947 1538.43 451.322C1538.43 450.696 1538.86 450.192 1539.39 450.192H1543.48C1558.14 450.192 1570.07 464.161 1570.07 481.338V482.324C1570.07 482.949 1569.64 483.454 1569.11 483.454Z" fill="#719E1B"/>
<path d="M1754.19 631.984C1754.61 617.684 1745.85 604.799 1733.75 602.427C1731.96 602.036 1730.08 601.953 1728.27 601.953L1725.44 601.945C1724.99 601.945 1724.62 601.509 1724.63 600.981C1724.63 600.454 1724.99 600.025 1725.44 600.025L1728.27 600.017C1729.06 599.972 1730.32 600.063 1731.14 600.1C1736.97 600.432 1742.68 603.18 1747.05 607.721C1752.98 613.7 1756.34 622.91 1756.13 632.029C1756.08 633.505 1754.18 633.49 1754.19 631.984Z" fill="#719E1B"/>
<path d="M1832.39 34.4892C1831.86 34.4892 1831.43 33.9847 1831.43 33.3597V32.3732C1831.43 16.4463 1820.36 3.48643 1806.76 3.48643H1802.67C1802.14 3.48643 1801.71 2.98189 1801.71 2.35686C1801.71 1.73183 1802.14 1.22729 1802.67 1.22729H1806.76C1821.42 1.22729 1833.35 15.1963 1833.35 32.3732V33.3597C1833.35 33.9847 1832.92 34.4892 1832.39 34.4892Z" fill="#719E1B"/>
<path d="M1699.26 184.142C1698.72 184.142 1698.29 183.637 1698.29 183.012V182.025C1698.29 166.099 1687.23 153.139 1673.62 153.139H1669.54C1669.01 153.139 1668.58 152.634 1668.58 152.009C1668.58 151.384 1669.01 150.88 1669.54 150.88H1673.62C1688.29 150.88 1700.22 164.849 1700.22 182.025V183.012C1700.22 183.637 1699.79 184.142 1699.26 184.142Z" fill="#719E1B"/>
<path d="M1569.75 184.142C1569.22 184.142 1568.79 183.637 1568.79 183.012V182.025C1568.79 166.099 1557.72 153.139 1544.12 153.139H1540.04C1539.5 153.139 1539.07 152.634 1539.07 152.009C1539.07 151.384 1539.5 150.88 1540.04 150.88H1544.12C1558.78 150.88 1570.72 164.849 1570.72 182.025V183.012C1570.72 183.637 1570.29 184.142 1569.75 184.142Z" fill="#719E1B"/>
<path d="M780.851 184.142C780.318 184.142 779.887 183.637 779.887 183.012V182.026C779.887 164.856 791.816 150.88 806.485 150.88H810.568C811.102 150.88 811.533 151.384 811.533 152.009C811.533 152.634 811.102 153.139 810.568 153.139H806.485C792.884 153.139 781.816 166.099 781.816 182.026V183.012C781.816 183.637 781.385 184.142 780.851 184.142Z" fill="#719E1B"/>
<path d="M1360.86 482.324C1360.53 464.861 1372.4 450.38 1387.35 450.32C1388.38 450.29 1390.56 450.335 1391.59 450.328C1392.06 450.328 1392.44 450.772 1392.44 451.322C1392.44 451.871 1392.06 452.316 1391.59 452.316L1388.77 452.323C1387.98 452.285 1386.8 452.368 1386 452.421C1376.85 452.91 1368.39 460.027 1364.8 469.854C1363.37 473.792 1362.73 478.047 1362.78 482.332C1362.79 483.838 1360.87 483.861 1360.86 482.324Z" fill="#719E1B"/>
<path d="M791.457 85.342C791.457 105.313 782.171 126.375 770.711 126.375C759.251 126.375 749.965 105.313 749.965 85.342C749.965 55.0847 759.251 44.3087 770.711 44.3087C782.171 44.3087 791.457 55.0847 791.457 85.342Z" fill="#8AC926"/>
<path d="M778.891 55.0998H762.608C762.21 55.0998 761.895 54.7233 761.895 54.2639C761.895 53.797 762.216 53.428 762.608 53.428H778.891C779.29 53.428 779.605 53.8046 779.605 54.2639C779.605 54.7233 779.284 55.0998 778.891 55.0998Z" fill="#719E1B"/>
<path d="M782.466 63.4811H760.46C760.061 63.4811 759.746 63.1046 759.746 62.6453C759.746 62.1784 760.068 61.8094 760.46 61.8094H782.466C782.865 61.8094 783.18 62.1859 783.18 62.6453C783.18 63.1046 782.865 63.4811 782.466 63.4811Z" fill="#719E1B"/>
<path d="M784.614 71.8626H758.311C757.913 71.8626 757.598 71.486 757.598 71.0267C757.598 70.5673 757.919 70.1908 758.311 70.1908H784.614C785.012 70.1908 785.328 70.5673 785.328 71.0267C785.328 71.486 785.012 71.8626 784.614 71.8626Z" fill="#719E1B"/>
<path d="M786.762 80.244H756.164C755.765 80.244 755.45 79.8674 755.45 79.4081C755.45 78.9412 755.772 78.5722 756.164 78.5722H786.762C787.161 78.5722 787.476 78.9487 787.476 79.4081C787.476 79.8674 787.154 80.244 786.762 80.244Z" fill="#719E1B"/>
<path d="M786.762 88.6253H756.164C755.765 88.6253 755.45 88.2488 755.45 87.7894C755.45 87.3225 755.772 86.9536 756.164 86.9536H786.762C787.161 86.9536 787.476 87.3301 787.476 87.7894C787.476 88.2488 787.154 88.6253 786.762 88.6253Z" fill="#719E1B"/>
<path d="M784.614 96.9992H758.311C757.913 96.9992 757.598 96.6227 757.598 96.1633C757.598 95.6964 757.919 95.3275 758.311 95.3275H784.614C785.012 95.3275 785.328 95.704 785.328 96.1633C785.328 96.6302 785.012 96.9992 784.614 96.9992Z" fill="#719E1B"/>
<path d="M782.466 105.381H760.46C760.061 105.381 759.746 105.004 759.746 104.545C759.746 104.078 760.068 103.709 760.46 103.709H782.466C782.865 103.709 783.18 104.085 783.18 104.545C783.18 105.012 782.865 105.381 782.466 105.381Z" fill="#719E1B"/>
<path d="M778.891 113.762H762.608C762.21 113.762 761.895 113.385 761.895 112.926C761.895 112.459 762.216 112.09 762.608 112.09H778.891C779.29 112.09 779.605 112.467 779.605 112.926C779.605 113.393 779.284 113.762 778.891 113.762Z" fill="#719E1B"/>
<path d="M771.675 31.763C771.489 46.5678 772.113 61.3727 772.196 76.1775C772.235 90.7414 772.119 106.021 771.675 120.592C771.611 121.993 769.83 122.053 769.746 120.592C769.103 98.4827 769.032 76.0721 769.592 53.9702C769.707 46.5678 769.842 39.1654 769.746 31.763C769.746 30.2945 771.656 30.2117 771.675 31.763Z" fill="#719E1B"/>
<path d="M922.306 85.3421C922.306 105.313 913.02 126.375 901.56 126.375C890.101 126.375 880.814 105.313 880.814 85.3421C880.814 55.0848 890.101 44.3087 901.56 44.3087C913.02 44.3087 922.306 55.0848 922.306 85.3421Z" fill="#8AC926"/>
<path d="M909.734 55.0999H893.451C893.052 55.0999 892.737 54.7233 892.737 54.264C892.737 53.7971 893.059 53.4281 893.451 53.4281H909.734C910.133 53.4281 910.448 53.8046 910.448 54.264C910.454 54.7233 910.133 55.0999 909.734 55.0999Z" fill="#719E1B"/>
<path d="M913.316 63.4811H891.31C890.911 63.4811 890.596 63.1046 890.596 62.6453C890.596 62.1784 890.917 61.8094 891.31 61.8094H913.316C913.715 61.8094 914.03 62.1859 914.03 62.6453C914.03 63.1046 913.708 63.4811 913.316 63.4811Z" fill="#719E1B"/>
<path d="M915.464 71.8625H889.162C888.763 71.8625 888.448 71.486 888.448 71.0266C888.448 70.5673 888.77 70.1907 889.162 70.1907H915.464C915.863 70.1907 916.178 70.5673 916.178 71.0266C916.178 71.486 915.857 71.8625 915.464 71.8625Z" fill="#719E1B"/>
<path d="M917.611 80.244H887.013C886.614 80.244 886.299 79.8674 886.299 79.4081C886.299 78.9412 886.62 78.5722 887.013 78.5722H917.611C918.009 78.5722 918.325 78.9487 918.325 79.4081C918.325 79.8674 918.003 80.244 917.611 80.244Z" fill="#719E1B"/>
<path d="M917.611 88.6253H887.013C886.614 88.6253 886.299 88.2488 886.299 87.7894C886.299 87.3225 886.62 86.9536 887.013 86.9536H917.611C918.009 86.9536 918.325 87.3301 918.325 87.7894C918.325 88.2488 918.003 88.6253 917.611 88.6253Z" fill="#719E1B"/>
<path d="M915.464 96.9991H889.162C888.763 96.9991 888.448 96.6226 888.448 96.1633C888.448 95.6964 888.77 95.3274 889.162 95.3274H915.464C915.863 95.3274 916.178 95.7039 916.178 96.1633C916.178 96.6302 915.857 96.9991 915.464 96.9991Z" fill="#719E1B"/>
<path d="M913.316 105.381H891.31C890.911 105.381 890.596 105.004 890.596 104.545C890.596 104.078 890.917 103.709 891.31 103.709H913.316C913.715 103.709 914.03 104.085 914.03 104.545C914.03 105.012 913.708 105.381 913.316 105.381Z" fill="#719E1B"/>
<path d="M909.734 113.762H893.451C893.052 113.762 892.737 113.385 892.737 112.926C892.737 112.459 893.059 112.09 893.451 112.09H909.734C910.133 112.09 910.448 112.467 910.448 112.926C910.454 113.393 910.133 113.762 909.734 113.762Z" fill="#719E1B"/>
<path d="M902.525 31.763C902.338 46.5678 902.962 61.3727 903.046 76.1775C903.084 90.7414 902.969 106.021 902.525 120.592C902.461 121.993 900.679 122.053 900.596 120.592C899.952 98.4827 899.882 76.0721 900.441 53.9702C900.557 46.5678 900.692 39.1654 900.596 31.763C900.596 30.2945 902.506 30.2117 902.525 31.763Z" fill="#719E1B"/>
<path d="M1119.35 85.342C1119.35 105.313 1110.06 126.375 1098.6 126.375C1087.14 126.375 1077.86 105.313 1077.86 85.342C1077.86 55.0847 1087.14 44.3087 1098.6 44.3087C1110.06 44.3087 1119.35 55.0847 1119.35 85.342Z" fill="#8AC926"/>
<path d="M1106.78 55.0999H1090.5C1090.1 55.0999 1089.79 54.7233 1089.79 54.264C1089.79 53.7971 1090.11 53.4281 1090.5 53.4281H1106.78C1107.18 53.4281 1107.5 53.8046 1107.5 54.264C1107.5 54.7233 1107.17 55.0999 1106.78 55.0999Z" fill="#719E1B"/>
<path d="M1110.36 63.4811H1088.35C1087.95 63.4811 1087.64 63.1046 1087.64 62.6453C1087.64 62.1784 1087.96 61.8094 1088.35 61.8094H1110.36C1110.76 61.8094 1111.07 62.1859 1111.07 62.6453C1111.07 63.1046 1110.76 63.4811 1110.36 63.4811Z" fill="#719E1B"/>
<path d="M1112.51 71.8626H1086.2C1085.8 71.8626 1085.49 71.486 1085.49 71.0267C1085.49 70.5673 1085.81 70.1908 1086.2 70.1908H1112.51C1112.9 70.1908 1113.22 70.5673 1113.22 71.0267C1113.22 71.486 1112.9 71.8626 1112.51 71.8626Z" fill="#719E1B"/>
<path d="M1114.65 80.2439H1084.06C1083.66 80.2439 1083.34 79.8674 1083.34 79.408C1083.34 78.9411 1083.66 78.5721 1084.06 78.5721H1114.65C1115.05 78.5721 1115.37 78.9487 1115.37 79.408C1115.37 79.8674 1115.05 80.2439 1114.65 80.2439Z" fill="#719E1B"/>
<path d="M1114.65 88.6253H1084.06C1083.66 88.6253 1083.34 88.2488 1083.34 87.7894C1083.34 87.3225 1083.66 86.9536 1084.06 86.9536H1114.65C1115.05 86.9536 1115.37 87.3301 1115.37 87.7894C1115.37 88.2488 1115.05 88.6253 1114.65 88.6253Z" fill="#719E1B"/>
<path d="M1112.51 96.9992H1086.2C1085.8 96.9992 1085.49 96.6227 1085.49 96.1633C1085.49 95.6964 1085.81 95.3275 1086.2 95.3275H1112.51C1112.9 95.3275 1113.22 95.704 1113.22 96.1633C1113.22 96.6302 1112.9 96.9992 1112.51 96.9992Z" fill="#719E1B"/>
<path d="M1110.36 105.381H1088.35C1087.95 105.381 1087.64 105.004 1087.64 104.545C1087.64 104.078 1087.96 103.709 1088.35 103.709H1110.36C1110.76 103.709 1111.07 104.085 1111.07 104.545C1111.07 105.012 1110.76 105.381 1110.36 105.381Z" fill="#719E1B"/>
<path d="M1106.78 113.762H1090.5C1090.1 113.762 1089.79 113.385 1089.79 112.926C1089.79 112.459 1090.11 112.09 1090.5 112.09H1106.78C1107.18 112.09 1107.5 112.467 1107.5 112.926C1107.5 113.393 1107.17 113.762 1106.78 113.762Z" fill="#719E1B"/>
<path d="M1099.57 31.763C1099.38 46.5679 1100 61.3727 1100.09 76.1776C1100.13 90.7414 1100.01 106.021 1099.57 120.592C1099.5 121.993 1097.72 122.053 1097.64 120.592C1096.99 98.4827 1096.92 76.0721 1097.48 53.9703C1097.6 46.5679 1097.73 39.1655 1097.64 31.763C1097.64 30.2946 1099.55 30.2118 1099.57 31.763Z" fill="#719E1B"/>
<path d="M1644.32 85.3421C1644.32 105.313 1635.03 126.375 1623.57 126.375C1612.11 126.375 1602.83 105.313 1602.83 85.3421C1602.83 55.0848 1612.11 44.3087 1623.57 44.3087C1635.03 44.3087 1644.32 55.0848 1644.32 85.3421Z" fill="#8AC926"/>
<path d="M1631.75 55.0998H1615.46C1615.07 55.0998 1614.75 54.7233 1614.75 54.2639C1614.75 53.797 1615.07 53.428 1615.46 53.428H1631.75C1632.15 53.428 1632.46 53.8046 1632.46 54.2639C1632.47 54.7233 1632.15 55.0998 1631.75 55.0998Z" fill="#719E1B"/>
<path d="M1635.33 63.4811H1613.32C1612.92 63.4811 1612.61 63.1046 1612.61 62.6453C1612.61 62.1784 1612.93 61.8094 1613.32 61.8094H1635.33C1635.73 61.8094 1636.04 62.1859 1636.04 62.6453C1636.04 63.1046 1635.72 63.4811 1635.33 63.4811Z" fill="#719E1B"/>
<path d="M1637.48 71.8626H1611.17C1610.78 71.8626 1610.46 71.486 1610.46 71.0267C1610.46 70.5673 1610.78 70.1908 1611.17 70.1908H1637.48C1637.87 70.1908 1638.19 70.5673 1638.19 71.0267C1638.19 71.486 1637.87 71.8626 1637.48 71.8626Z" fill="#719E1B"/>
<path d="M1639.62 80.244H1609.03C1608.63 80.244 1608.31 79.8674 1608.31 79.4081C1608.31 78.9412 1608.63 78.5722 1609.03 78.5722H1639.62C1640.02 78.5722 1640.34 78.9487 1640.34 79.4081C1640.34 79.8674 1640.02 80.244 1639.62 80.244Z" fill="#719E1B"/>
<path d="M1639.62 88.6253H1609.03C1608.63 88.6253 1608.31 88.2488 1608.31 87.7894C1608.31 87.3225 1608.63 86.9536 1609.03 86.9536H1639.62C1640.02 86.9536 1640.34 87.3301 1640.34 87.7894C1640.34 88.2488 1640.02 88.6253 1639.62 88.6253Z" fill="#719E1B"/>
<path d="M1637.48 96.9992H1611.17C1610.78 96.9992 1610.46 96.6227 1610.46 96.1633C1610.46 95.6964 1610.78 95.3275 1611.17 95.3275H1637.48C1637.87 95.3275 1638.19 95.704 1638.19 96.1633C1638.19 96.6302 1637.87 96.9992 1637.48 96.9992Z" fill="#719E1B"/>
<path d="M1635.33 105.381H1613.32C1612.92 105.381 1612.61 105.004 1612.61 104.545C1612.61 104.078 1612.93 103.709 1613.32 103.709H1635.33C1635.73 103.709 1636.04 104.085 1636.04 104.545C1636.04 105.012 1635.72 105.381 1635.33 105.381Z" fill="#719E1B"/>
<path d="M1631.75 113.762H1615.46C1615.07 113.762 1614.75 113.385 1614.75 112.926C1614.75 112.459 1615.07 112.09 1615.46 112.09H1631.75C1632.15 112.09 1632.46 112.467 1632.46 112.926C1632.47 113.393 1632.15 113.762 1631.75 113.762Z" fill="#719E1B"/>
<path d="M1624.54 31.763C1624.35 46.5678 1624.97 61.3727 1625.06 76.1775C1625.1 90.7414 1624.98 106.021 1624.54 120.592C1624.47 121.993 1622.69 122.053 1622.61 120.592C1621.97 98.4827 1621.89 76.0721 1622.45 53.9702C1622.57 46.5678 1622.7 39.1654 1622.61 31.763C1622.61 30.2945 1624.52 30.2117 1624.54 31.763Z" fill="#719E1B"/>
<path d="M1907.52 85.3421C1907.52 105.313 1898.24 126.375 1886.78 126.375C1875.32 126.375 1866.03 105.313 1866.03 85.3421C1866.03 55.0848 1875.32 44.3087 1886.78 44.3087C1898.24 44.3087 1907.52 55.0848 1907.52 85.3421Z" fill="#8AC926"/>
<path d="M1894.96 55.0998H1878.67C1878.27 55.0998 1877.96 54.7233 1877.96 54.2639C1877.96 53.797 1878.28 53.428 1878.67 53.428H1894.96C1895.35 53.428 1895.67 53.8046 1895.67 54.2639C1895.67 54.7233 1895.35 55.0998 1894.96 55.0998Z" fill="#719E1B"/>
<path d="M1898.53 63.4812H1876.53C1876.13 63.4812 1875.81 63.1047 1875.81 62.6453C1875.81 62.1784 1876.13 61.8094 1876.53 61.8094H1898.53C1898.93 61.8094 1899.25 62.186 1899.25 62.6453C1899.25 63.1047 1898.93 63.4812 1898.53 63.4812Z" fill="#719E1B"/>
<path d="M1900.68 71.8626H1874.38C1873.98 71.8626 1873.66 71.486 1873.66 71.0267C1873.66 70.5673 1873.98 70.1908 1874.38 70.1908H1900.68C1901.08 70.1908 1901.39 70.5673 1901.39 71.0267C1901.39 71.486 1901.07 71.8626 1900.68 71.8626Z" fill="#719E1B"/>
<path d="M1902.83 80.244H1872.23C1871.83 80.244 1871.52 79.8674 1871.52 79.4081C1871.52 78.9412 1871.84 78.5722 1872.23 78.5722H1902.83C1903.23 78.5722 1903.54 78.9487 1903.54 79.4081C1903.54 79.8674 1903.22 80.244 1902.83 80.244Z" fill="#719E1B"/>
<path d="M1902.83 88.6253H1872.23C1871.83 88.6253 1871.52 88.2488 1871.52 87.7894C1871.52 87.3225 1871.84 86.9536 1872.23 86.9536H1902.83C1903.23 86.9536 1903.54 87.3301 1903.54 87.7894C1903.54 88.2488 1903.22 88.6253 1902.83 88.6253Z" fill="#719E1B"/>
<path d="M1900.68 96.9992H1874.38C1873.98 96.9992 1873.66 96.6227 1873.66 96.1633C1873.66 95.6964 1873.98 95.3275 1874.38 95.3275H1900.68C1901.08 95.3275 1901.39 95.704 1901.39 96.1633C1901.39 96.6302 1901.07 96.9992 1900.68 96.9992Z" fill="#719E1B"/>
<path d="M1898.53 105.381H1876.53C1876.13 105.381 1875.81 105.004 1875.81 104.545C1875.81 104.078 1876.13 103.709 1876.53 103.709H1898.53C1898.93 103.709 1899.25 104.085 1899.25 104.545C1899.25 105.012 1898.93 105.381 1898.53 105.381Z" fill="#719E1B"/>
<path d="M1894.96 113.762H1878.67C1878.27 113.762 1877.96 113.385 1877.96 112.926C1877.96 112.459 1878.28 112.09 1878.67 112.09H1894.96C1895.35 112.09 1895.67 112.467 1895.67 112.926C1895.67 113.393 1895.35 113.762 1894.96 113.762Z" fill="#719E1B"/>
<path d="M1887.74 31.763C1887.55 46.5678 1888.18 61.3727 1888.26 76.1775C1888.3 90.7414 1888.18 106.021 1887.74 120.592C1887.68 121.993 1885.89 122.053 1885.81 120.592C1885.17 98.4827 1885.1 76.0721 1885.66 53.9702C1885.77 46.5678 1885.91 39.1654 1885.81 31.763C1885.81 30.2945 1887.72 30.2117 1887.74 31.763Z" fill="#719E1B"/>
<path d="M1907.52 234.776C1907.52 254.747 1898.24 275.81 1886.78 275.81C1875.32 275.81 1866.03 254.747 1866.03 234.776C1866.03 204.519 1875.32 193.743 1886.78 193.743C1898.24 193.743 1907.52 204.519 1907.52 234.776Z" fill="#8AC926"/>
<path d="M1894.96 204.534H1878.67C1878.27 204.534 1877.96 204.158 1877.96 203.698C1877.96 203.231 1878.28 202.862 1878.67 202.862H1894.96C1895.35 202.862 1895.67 203.239 1895.67 203.698C1895.67 204.158 1895.35 204.534 1894.96 204.534Z" fill="#719E1B"/>
<path d="M1898.53 212.915H1876.53C1876.13 212.915 1875.81 212.539 1875.81 212.08C1875.81 211.62 1876.13 211.244 1876.53 211.244H1898.53C1898.93 211.244 1899.25 211.62 1899.25 212.08C1899.25 212.539 1898.93 212.915 1898.53 212.915Z" fill="#719E1B"/>
<path d="M1900.68 221.297H1874.38C1873.98 221.297 1873.66 220.92 1873.66 220.461C1873.66 219.994 1873.98 219.625 1874.38 219.625H1900.68C1901.08 219.625 1901.39 220.002 1901.39 220.461C1901.39 220.92 1901.07 221.297 1900.68 221.297Z" fill="#719E1B"/>
<path d="M1902.83 229.678H1872.23C1871.83 229.678 1871.52 229.302 1871.52 228.842C1871.52 228.375 1871.84 228.006 1872.23 228.006H1902.83C1903.23 228.006 1903.54 228.383 1903.54 228.842C1903.54 229.302 1903.22 229.678 1902.83 229.678Z" fill="#719E1B"/>
<path d="M1902.83 238.06H1872.23C1871.83 238.06 1871.52 237.683 1871.52 237.224C1871.52 236.764 1871.84 236.388 1872.23 236.388H1902.83C1903.23 236.388 1903.54 236.764 1903.54 237.224C1903.54 237.683 1903.22 238.06 1902.83 238.06Z" fill="#719E1B"/>
<path d="M1900.68 246.433H1874.38C1873.98 246.433 1873.66 246.057 1873.66 245.598C1873.66 245.131 1873.98 244.762 1874.38 244.762H1900.68C1901.08 244.762 1901.39 245.138 1901.39 245.598C1901.39 246.064 1901.07 246.433 1900.68 246.433Z" fill="#719E1B"/>
<path d="M1898.53 254.815H1876.53C1876.13 254.815 1875.81 254.438 1875.81 253.979C1875.81 253.52 1876.13 253.143 1876.53 253.143H1898.53C1898.93 253.143 1899.25 253.52 1899.25 253.979C1899.25 254.438 1898.93 254.815 1898.53 254.815Z" fill="#719E1B"/>
<path d="M1894.96 263.196H1878.67C1878.27 263.196 1877.96 262.82 1877.96 262.36C1877.96 261.901 1878.28 261.524 1878.67 261.524H1894.96C1895.35 261.524 1895.67 261.901 1895.67 262.36C1895.67 262.82 1895.35 263.196 1894.96 263.196Z" fill="#719E1B"/>
<path d="M1887.74 181.197C1887.55 196.002 1888.18 210.807 1888.26 225.612C1888.3 240.176 1888.18 255.455 1887.74 270.026C1887.68 271.427 1885.89 271.487 1885.81 270.026C1885.17 247.917 1885.1 225.506 1885.66 203.405C1885.77 196.002 1885.91 188.6 1885.81 181.197C1885.81 179.729 1887.72 179.646 1887.74 181.197Z" fill="#719E1B"/>
<path d="M1644.32 234.776C1644.32 254.747 1635.03 275.81 1623.57 275.81C1612.11 275.81 1602.83 254.747 1602.83 234.776C1602.83 204.519 1612.11 193.743 1623.57 193.743C1635.03 193.743 1644.32 204.519 1644.32 234.776Z" fill="#8AC926"/>
<path d="M1631.75 204.534H1615.46C1615.07 204.534 1614.75 204.158 1614.75 203.698C1614.75 203.231 1615.07 202.862 1615.46 202.862H1631.75C1632.15 202.862 1632.46 203.239 1632.46 203.698C1632.47 204.158 1632.15 204.534 1631.75 204.534Z" fill="#719E1B"/>
<path d="M1635.33 212.915H1613.32C1612.92 212.915 1612.61 212.539 1612.61 212.08C1612.61 211.62 1612.93 211.244 1613.32 211.244H1635.33C1635.73 211.244 1636.04 211.62 1636.04 212.08C1636.04 212.539 1635.72 212.915 1635.33 212.915Z" fill="#719E1B"/>
<path d="M1637.48 221.297H1611.17C1610.78 221.297 1610.46 220.92 1610.46 220.461C1610.46 219.994 1610.78 219.625 1611.17 219.625H1637.48C1637.87 219.625 1638.19 220.002 1638.19 220.461C1638.19 220.92 1637.87 221.297 1637.48 221.297Z" fill="#719E1B"/>
<path d="M1639.62 229.678H1609.03C1608.63 229.678 1608.31 229.302 1608.31 228.842C1608.31 228.375 1608.63 228.006 1609.03 228.006H1639.62C1640.02 228.006 1640.34 228.383 1640.34 228.842C1640.34 229.302 1640.02 229.678 1639.62 229.678Z" fill="#719E1B"/>
<path d="M1639.62 238.06H1609.03C1608.63 238.06 1608.31 237.683 1608.31 237.224C1608.31 236.764 1608.63 236.388 1609.03 236.388H1639.62C1640.02 236.388 1640.34 236.764 1640.34 237.224C1640.34 237.683 1640.02 238.06 1639.62 238.06Z" fill="#719E1B"/>
<path d="M1637.48 246.433H1611.17C1610.78 246.433 1610.46 246.057 1610.46 245.598C1610.46 245.131 1610.78 244.762 1611.17 244.762H1637.48C1637.87 244.762 1638.19 245.138 1638.19 245.598C1638.19 246.064 1637.87 246.433 1637.48 246.433Z" fill="#719E1B"/>
<path d="M1635.33 254.815H1613.32C1612.92 254.815 1612.61 254.438 1612.61 253.979C1612.61 253.52 1612.93 253.143 1613.32 253.143H1635.33C1635.73 253.143 1636.04 253.52 1636.04 253.979C1636.04 254.438 1635.72 254.815 1635.33 254.815Z" fill="#719E1B"/>
<path d="M1631.75 263.196H1615.46C1615.07 263.196 1614.75 262.82 1614.75 262.36C1614.75 261.901 1615.07 261.524 1615.46 261.524H1631.75C1632.15 261.524 1632.46 261.901 1632.46 262.36C1632.46 262.82 1632.15 263.196 1631.75 263.196Z" fill="#719E1B"/>
<path d="M1624.54 181.197C1624.35 196.002 1624.97 210.807 1625.06 225.612C1625.1 240.176 1624.98 255.455 1624.54 270.026C1624.47 271.427 1622.69 271.487 1622.61 270.026C1621.97 247.917 1621.89 225.506 1622.45 203.405C1622.57 196.002 1622.7 188.6 1622.61 181.197C1622.61 179.729 1624.52 179.646 1624.54 181.197Z" fill="#719E1B"/>
<path d="M1513.47 234.776C1513.47 254.747 1504.18 275.81 1492.72 275.81C1481.26 275.81 1471.98 254.747 1471.98 234.776C1471.98 204.519 1481.26 193.743 1492.72 193.743C1504.18 193.743 1513.47 204.519 1513.47 234.776Z" fill="#8AC926"/>
<path d="M1500.9 204.534H1484.62C1484.22 204.534 1483.91 204.158 1483.91 203.698C1483.91 203.231 1484.23 202.862 1484.62 202.862H1500.9C1501.3 202.862 1501.62 203.239 1501.62 203.698C1501.62 204.158 1501.3 204.534 1500.9 204.534Z" fill="#719E1B"/>
<path d="M1504.48 212.915H1482.47C1482.07 212.915 1481.76 212.539 1481.76 212.08C1481.76 211.62 1482.08 211.244 1482.47 211.244H1504.48C1504.88 211.244 1505.19 211.62 1505.19 212.08C1505.19 212.539 1504.88 212.915 1504.48 212.915Z" fill="#719E1B"/>
<path d="M1506.63 221.297H1480.33C1479.93 221.297 1479.61 220.92 1479.61 220.461C1479.61 219.994 1479.93 219.625 1480.33 219.625H1506.63C1507.03 219.625 1507.34 220.002 1507.34 220.461C1507.35 220.92 1507.03 221.297 1506.63 221.297Z" fill="#719E1B"/>
<path d="M1508.78 229.678H1478.18C1477.78 229.678 1477.46 229.302 1477.46 228.842C1477.46 228.375 1477.79 228.006 1478.18 228.006H1508.78C1509.17 228.006 1509.49 228.383 1509.49 228.842C1509.5 229.302 1509.17 229.678 1508.78 229.678Z" fill="#719E1B"/>
<path d="M1508.78 238.06H1478.18C1477.78 238.06 1477.46 237.683 1477.46 237.224C1477.46 236.764 1477.79 236.388 1478.18 236.388H1508.78C1509.17 236.388 1509.49 236.764 1509.49 237.224C1509.49 237.683 1509.17 238.06 1508.78 238.06Z" fill="#719E1B"/>
<path d="M1506.63 246.433H1480.33C1479.93 246.433 1479.61 246.057 1479.61 245.598C1479.61 245.131 1479.93 244.762 1480.33 244.762H1506.63C1507.03 244.762 1507.34 245.138 1507.34 245.598C1507.35 246.064 1507.03 246.433 1506.63 246.433Z" fill="#719E1B"/>
<path d="M1504.48 254.815H1482.47C1482.07 254.815 1481.76 254.438 1481.76 253.979C1481.76 253.52 1482.08 253.143 1482.47 253.143H1504.48C1504.88 253.143 1505.19 253.52 1505.19 253.979C1505.19 254.438 1504.88 254.815 1504.48 254.815Z" fill="#719E1B"/>
<path d="M1500.9 263.196H1484.62C1484.22 263.196 1483.91 262.82 1483.91 262.36C1483.91 261.901 1484.23 261.524 1484.62 261.524H1500.9C1501.3 261.524 1501.62 261.901 1501.62 262.36C1501.62 262.82 1501.3 263.196 1500.9 263.196Z" fill="#719E1B"/>
<path d="M1493.69 181.197C1493.5 196.002 1494.13 210.807 1494.21 225.612C1494.25 240.176 1494.13 255.455 1493.69 270.026C1493.62 271.427 1491.84 271.487 1491.76 270.026C1491.12 247.917 1491.05 225.506 1491.61 203.405C1491.72 196.002 1491.86 188.6 1491.76 181.197C1491.77 179.729 1493.67 179.646 1493.69 181.197Z" fill="#719E1B"/>
<path d="M1119.35 234.995C1119.35 254.965 1110.06 276.028 1098.6 276.028C1087.14 276.028 1077.86 254.965 1077.86 234.995C1077.86 204.737 1087.14 193.961 1098.6 193.961C1110.06 193.961 1119.35 204.737 1119.35 234.995Z" fill="#8AC926"/>
<path d="M1106.78 204.752H1090.5C1090.1 204.752 1089.79 204.376 1089.79 203.917C1089.79 203.45 1090.11 203.081 1090.5 203.081H1106.78C1107.18 203.081 1107.5 203.457 1107.5 203.917C1107.5 204.376 1107.17 204.752 1106.78 204.752Z" fill="#719E1B"/>
<path d="M1110.36 213.134H1088.35C1087.95 213.134 1087.64 212.757 1087.64 212.298C1087.64 211.839 1087.96 211.462 1088.35 211.462H1110.36C1110.76 211.462 1111.07 211.839 1111.07 212.298C1111.07 212.757 1110.76 213.134 1110.36 213.134Z" fill="#719E1B"/>
<path d="M1112.51 221.515H1086.2C1085.8 221.515 1085.49 221.139 1085.49 220.679C1085.49 220.212 1085.81 219.843 1086.2 219.843H1112.51C1112.9 219.843 1113.22 220.22 1113.22 220.679C1113.22 221.139 1112.9 221.515 1112.51 221.515Z" fill="#719E1B"/>
<path d="M1114.65 229.896H1084.06C1083.66 229.896 1083.34 229.52 1083.34 229.061C1083.34 228.594 1083.66 228.225 1084.06 228.225H1114.65C1115.05 228.225 1115.37 228.601 1115.37 229.061C1115.37 229.52 1115.05 229.896 1114.65 229.896Z" fill="#719E1B"/>
<path d="M1114.65 238.278H1084.06C1083.66 238.278 1083.34 237.901 1083.34 237.442C1083.34 236.983 1083.66 236.606 1084.06 236.606H1114.65C1115.05 236.606 1115.37 236.983 1115.37 237.442C1115.37 237.901 1115.05 238.278 1114.65 238.278Z" fill="#719E1B"/>
<path d="M1112.51 246.659H1086.2C1085.8 246.659 1085.49 246.283 1085.49 245.823C1085.49 245.357 1085.81 244.988 1086.2 244.988H1112.51C1112.9 244.988 1113.22 245.364 1113.22 245.823C1113.22 246.283 1112.9 246.659 1112.51 246.659Z" fill="#719E1B"/>
<path d="M1110.36 255.041H1088.35C1087.95 255.041 1087.64 254.664 1087.64 254.205C1087.64 253.738 1087.96 253.369 1088.35 253.369H1110.36C1110.76 253.369 1111.07 253.745 1111.07 254.205C1111.07 254.664 1110.76 255.041 1110.36 255.041Z" fill="#719E1B"/>
<path d="M1106.78 263.422H1090.5C1090.1 263.422 1089.79 263.045 1089.79 262.586C1089.79 262.127 1090.11 261.75 1090.5 261.75H1106.78C1107.18 261.75 1107.5 262.127 1107.5 262.586C1107.5 263.045 1107.17 263.422 1106.78 263.422Z" fill="#719E1B"/>
<path d="M1099.57 181.423C1099.38 196.228 1100 211.033 1100.09 225.838C1100.13 240.401 1100.01 255.681 1099.57 270.252C1099.5 271.653 1097.72 271.713 1097.64 270.252C1096.99 248.143 1096.92 225.732 1097.48 203.63C1097.6 196.228 1097.73 188.826 1097.64 181.423C1097.64 179.947 1099.55 179.872 1099.57 181.423Z" fill="#719E1B"/>
<path d="M1119.35 534.307C1119.35 554.278 1110.06 575.34 1098.6 575.34C1087.14 575.34 1077.86 554.278 1077.86 534.307C1077.86 504.05 1087.14 493.274 1098.6 493.274C1110.06 493.274 1119.35 504.05 1119.35 534.307Z" fill="#8AC926"/>
<path d="M1106.78 504.065H1090.5C1090.1 504.065 1089.79 503.688 1089.79 503.229C1089.79 502.769 1090.11 502.393 1090.5 502.393H1106.78C1107.18 502.393 1107.5 502.769 1107.5 503.229C1107.5 503.688 1107.17 504.065 1106.78 504.065Z" fill="#719E1B"/>
<path d="M1110.36 512.446H1088.35C1087.95 512.446 1087.64 512.07 1087.64 511.61C1087.64 511.151 1087.96 510.774 1088.35 510.774H1110.36C1110.76 510.774 1111.07 511.151 1111.07 511.61C1111.07 512.07 1110.76 512.446 1110.36 512.446Z" fill="#719E1B"/>
<path d="M1112.51 520.827H1086.2C1085.8 520.827 1085.49 520.451 1085.49 519.992C1085.49 519.532 1085.81 519.156 1086.2 519.156H1112.51C1112.9 519.156 1113.22 519.532 1113.22 519.992C1113.22 520.451 1112.9 520.827 1112.51 520.827Z" fill="#719E1B"/>
<path d="M1114.65 529.209H1084.06C1083.66 529.209 1083.34 528.832 1083.34 528.373C1083.34 527.914 1083.66 527.537 1084.06 527.537H1114.65C1115.05 527.537 1115.37 527.914 1115.37 528.373C1115.37 528.832 1115.05 529.209 1114.65 529.209Z" fill="#719E1B"/>
<path d="M1114.65 537.59H1084.06C1083.66 537.59 1083.34 537.214 1083.34 536.754C1083.34 536.288 1083.66 535.918 1084.06 535.918H1114.65C1115.05 535.918 1115.37 536.295 1115.37 536.754C1115.37 537.214 1115.05 537.59 1114.65 537.59Z" fill="#719E1B"/>
<path d="M1112.51 545.972H1086.2C1085.8 545.972 1085.49 545.595 1085.49 545.136C1085.49 544.676 1085.81 544.3 1086.2 544.3H1112.51C1112.9 544.3 1113.22 544.676 1113.22 545.136C1113.22 545.595 1112.9 545.972 1112.51 545.972Z" fill="#719E1B"/>
<path d="M1110.36 554.353H1088.35C1087.95 554.353 1087.64 553.976 1087.64 553.517C1087.64 553.058 1087.96 552.681 1088.35 552.681H1110.36C1110.76 552.681 1111.07 553.058 1111.07 553.517C1111.07 553.976 1110.76 554.353 1110.36 554.353Z" fill="#719E1B"/>
<path d="M1106.78 562.734H1090.5C1090.1 562.734 1089.79 562.358 1089.79 561.898C1089.79 561.432 1090.11 561.063 1090.5 561.063H1106.78C1107.18 561.063 1107.5 561.439 1107.5 561.898C1107.5 562.358 1107.17 562.734 1106.78 562.734Z" fill="#719E1B"/>
<path d="M1099.57 480.735C1099.38 495.54 1100 510.345 1100.09 525.15C1100.13 539.714 1100.01 554.993 1099.57 569.564C1099.5 570.965 1097.72 571.025 1097.64 569.564C1096.99 547.455 1096.92 525.045 1097.48 502.943C1097.6 495.54 1097.73 488.138 1097.64 480.735C1097.64 479.259 1099.55 479.184 1099.57 480.735Z" fill="#719E1B"/>
<path d="M1382.63 534.307C1382.63 554.278 1373.34 575.34 1361.88 575.34C1350.42 575.34 1341.13 554.278 1341.13 534.307C1341.13 504.05 1350.42 493.274 1361.88 493.274C1373.34 493.274 1382.63 504.05 1382.63 534.307Z" fill="#8AC926"/>
<path d="M1370.05 504.065H1353.77C1353.37 504.065 1353.06 503.688 1353.06 503.229C1353.06 502.769 1353.38 502.393 1353.77 502.393H1370.05C1370.45 502.393 1370.77 502.769 1370.77 503.229C1370.77 503.688 1370.45 504.065 1370.05 504.065Z" fill="#719E1B"/>
<path d="M1373.64 512.446H1351.63C1351.23 512.446 1350.92 512.07 1350.92 511.61C1350.92 511.151 1351.24 510.774 1351.63 510.774H1373.64C1374.04 510.774 1374.35 511.151 1374.35 511.61C1374.35 512.07 1374.03 512.446 1373.64 512.446Z" fill="#719E1B"/>
<path d="M1375.78 520.827H1349.48C1349.08 520.827 1348.77 520.451 1348.77 519.992C1348.77 519.532 1349.09 519.156 1349.48 519.156H1375.78C1376.18 519.156 1376.5 519.532 1376.5 519.992C1376.5 520.451 1376.18 520.827 1375.78 520.827Z" fill="#719E1B"/>
<path d="M1377.93 529.209H1347.33C1346.94 529.209 1346.62 528.832 1346.62 528.373C1346.62 527.914 1346.94 527.537 1347.33 527.537H1377.93C1378.33 527.537 1378.65 527.914 1378.65 528.373C1378.65 528.832 1378.33 529.209 1377.93 529.209Z" fill="#719E1B"/>
<path d="M1377.93 537.59H1347.33C1346.94 537.59 1346.62 537.214 1346.62 536.754C1346.62 536.288 1346.94 535.918 1347.33 535.918H1377.93C1378.33 535.918 1378.65 536.295 1378.65 536.754C1378.65 537.214 1378.33 537.59 1377.93 537.59Z" fill="#719E1B"/>
<path d="M1375.78 545.972H1349.48C1349.08 545.972 1348.77 545.595 1348.77 545.136C1348.77 544.676 1349.09 544.3 1349.48 544.3H1375.78C1376.18 544.3 1376.5 544.676 1376.5 545.136C1376.5 545.595 1376.18 545.972 1375.78 545.972Z" fill="#719E1B"/>
<path d="M1373.64 554.353H1351.63C1351.23 554.353 1350.92 553.976 1350.92 553.517C1350.92 553.058 1351.24 552.681 1351.63 552.681H1373.64C1374.04 552.681 1374.35 553.058 1374.35 553.517C1374.35 553.976 1374.03 554.353 1373.64 554.353Z" fill="#719E1B"/>
<path d="M1370.05 562.734H1353.77C1353.37 562.734 1353.06 562.358 1353.06 561.898C1353.06 561.432 1353.38 561.063 1353.77 561.063H1370.05C1370.45 561.063 1370.77 561.439 1370.77 561.898C1370.77 562.358 1370.45 562.734 1370.05 562.734Z" fill="#719E1B"/>
<path d="M1362.85 480.735C1362.66 495.54 1363.28 510.345 1363.37 525.15C1363.4 539.714 1363.29 554.993 1362.85 569.564C1362.78 570.965 1361 571.025 1360.92 569.564C1360.27 547.455 1360.2 525.045 1360.76 502.943C1360.88 495.54 1361.01 488.138 1360.92 480.735C1360.92 479.259 1362.83 479.184 1362.85 480.735Z" fill="#719E1B"/>
<path d="M1513.44 534.307C1513.44 554.278 1504.15 575.34 1492.69 575.34C1481.23 575.34 1471.95 554.278 1471.95 534.307C1471.95 504.05 1481.23 493.274 1492.69 493.274C1504.15 493.274 1513.44 504.05 1513.44 534.307Z" fill="#8AC926"/>
<path d="M1500.86 504.065H1484.58C1484.18 504.065 1483.87 503.688 1483.87 503.229C1483.87 502.769 1484.19 502.393 1484.58 502.393H1500.86C1501.26 502.393 1501.58 502.769 1501.58 503.229C1501.58 503.688 1501.26 504.065 1500.86 504.065Z" fill="#719E1B"/>
<path d="M1504.45 512.446H1482.44C1482.04 512.446 1481.73 512.07 1481.73 511.61C1481.73 511.151 1482.05 510.774 1482.44 510.774H1504.45C1504.85 510.774 1505.16 511.151 1505.16 511.61C1505.16 512.07 1504.84 512.446 1504.45 512.446Z" fill="#719E1B"/>
<path d="M1506.59 520.827H1480.29C1479.89 520.827 1479.57 520.451 1479.57 519.992C1479.57 519.532 1479.89 519.156 1480.29 519.156H1506.59C1506.99 519.156 1507.3 519.532 1507.3 519.992C1507.3 520.451 1506.99 520.827 1506.59 520.827Z" fill="#719E1B"/>
<path d="M1508.74 529.209H1478.14C1477.74 529.209 1477.42 528.832 1477.42 528.373C1477.42 527.914 1477.75 527.537 1478.14 527.537H1508.74C1509.14 527.537 1509.45 527.914 1509.45 528.373C1509.45 528.832 1509.14 529.209 1508.74 529.209Z" fill="#719E1B"/>
<path d="M1508.74 537.59H1478.14C1477.74 537.59 1477.42 537.214 1477.42 536.754C1477.42 536.288 1477.75 535.918 1478.14 535.918H1508.74C1509.14 535.918 1509.45 536.295 1509.45 536.754C1509.46 537.214 1509.14 537.59 1508.74 537.59Z" fill="#719E1B"/>
<path d="M1506.59 545.972H1480.29C1479.89 545.972 1479.57 545.595 1479.57 545.136C1479.57 544.676 1479.89 544.3 1480.29 544.3H1506.59C1506.99 544.3 1507.3 544.676 1507.3 545.136C1507.3 545.595 1506.99 545.972 1506.59 545.972Z" fill="#719E1B"/>
<path d="M1504.45 554.353H1482.44C1482.04 554.353 1481.73 553.976 1481.73 553.517C1481.73 553.058 1482.05 552.681 1482.44 552.681H1504.45C1504.85 552.681 1505.16 553.058 1505.16 553.517C1505.16 553.976 1504.84 554.353 1504.45 554.353Z" fill="#719E1B"/>
<path d="M1500.86 562.734H1484.58C1484.18 562.734 1483.87 562.358 1483.87 561.898C1483.87 561.432 1484.19 561.063 1484.58 561.063H1500.86C1501.26 561.063 1501.58 561.439 1501.58 561.898C1501.58 562.358 1501.26 562.734 1500.86 562.734Z" fill="#719E1B"/>
<path d="M1493.65 480.735C1493.46 495.54 1494.09 510.345 1494.17 525.15C1494.21 539.714 1494.09 554.993 1493.65 569.564C1493.59 570.965 1491.8 571.025 1491.72 569.564C1491.08 547.455 1491.01 525.045 1491.57 502.943C1491.68 495.54 1491.82 488.138 1491.72 480.735C1491.73 479.259 1493.63 479.184 1493.65 480.735Z" fill="#719E1B"/>
<path d="M1842.14 534.307C1842.14 554.278 1832.85 575.34 1821.39 575.34C1809.93 575.34 1800.65 554.278 1800.65 534.307C1800.65 504.05 1809.93 493.274 1821.39 493.274C1832.85 493.274 1842.14 504.05 1842.14 534.307Z" fill="#8AC926"/>
<path d="M1829.57 504.065H1813.28C1812.89 504.065 1812.57 503.688 1812.57 503.229C1812.57 502.769 1812.89 502.393 1813.28 502.393H1829.57C1829.97 502.393 1830.28 502.769 1830.28 503.229C1830.28 503.688 1829.97 504.065 1829.57 504.065Z" fill="#719E1B"/>
<path d="M1833.15 512.446H1811.14C1810.74 512.446 1810.43 512.07 1810.43 511.61C1810.43 511.151 1810.75 510.774 1811.14 510.774H1833.15C1833.55 510.774 1833.86 511.151 1833.86 511.61C1833.86 512.07 1833.54 512.446 1833.15 512.446Z" fill="#719E1B"/>
<path d="M1835.29 520.827H1808.99C1808.59 520.827 1808.27 520.451 1808.27 519.992C1808.27 519.532 1808.59 519.156 1808.99 519.156H1835.29C1835.69 519.156 1836 519.532 1836 519.992C1836 520.451 1835.69 520.827 1835.29 520.827Z" fill="#719E1B"/>
<path d="M1837.44 529.209H1806.84C1806.44 529.209 1806.13 528.832 1806.13 528.373C1806.13 527.914 1806.45 527.537 1806.84 527.537H1837.44C1837.84 527.537 1838.15 527.914 1838.15 528.373C1838.15 528.832 1837.84 529.209 1837.44 529.209Z" fill="#719E1B"/>
<path d="M1837.44 537.59H1806.84C1806.44 537.59 1806.13 537.214 1806.13 536.754C1806.13 536.288 1806.45 535.918 1806.84 535.918H1837.44C1837.84 535.918 1838.15 536.295 1838.15 536.754C1838.16 537.214 1837.84 537.59 1837.44 537.59Z" fill="#719E1B"/>
<path d="M1835.29 545.972H1808.99C1808.59 545.972 1808.27 545.595 1808.27 545.136C1808.27 544.676 1808.59 544.3 1808.99 544.3H1835.29C1835.69 544.3 1836 544.676 1836 545.136C1836 545.595 1835.69 545.972 1835.29 545.972Z" fill="#719E1B"/>
<path d="M1833.15 554.353H1811.14C1810.74 554.353 1810.43 553.976 1810.43 553.517C1810.43 553.058 1810.75 552.681 1811.14 552.681H1833.15C1833.55 552.681 1833.86 553.058 1833.86 553.517C1833.86 553.976 1833.54 554.353 1833.15 554.353Z" fill="#719E1B"/>
<path d="M1829.57 562.734H1813.28C1812.89 562.734 1812.57 562.358 1812.57 561.898C1812.57 561.432 1812.89 561.063 1813.28 561.063H1829.57C1829.97 561.063 1830.28 561.439 1830.28 561.898C1830.28 562.358 1829.97 562.734 1829.57 562.734Z" fill="#719E1B"/>
<path d="M1822.35 480.735C1822.17 495.54 1822.79 510.345 1822.87 525.15C1822.91 539.714 1822.8 554.993 1822.35 569.564C1822.29 570.965 1820.51 571.025 1820.42 569.564C1819.78 547.455 1819.71 525.045 1820.27 502.943C1820.38 495.54 1820.52 488.138 1820.42 480.735C1820.43 479.259 1822.33 479.184 1822.35 480.735Z" fill="#719E1B"/>
<path d="M987.727 534.307C987.727 554.278 978.441 575.34 966.981 575.34C955.522 575.34 946.235 554.278 946.235 534.307C946.235 504.05 955.522 493.274 966.981 493.274C978.441 493.274 987.727 504.05 987.727 534.307Z" fill="#8AC926"/>
<path d="M975.162 504.065H958.879C958.48 504.065 958.165 503.688 958.165 503.229C958.165 502.769 958.487 502.393 958.879 502.393H975.162C975.561 502.393 975.876 502.769 975.876 503.229C975.876 503.688 975.554 504.065 975.162 504.065Z" fill="#719E1B"/>
<path d="M978.737 512.446H956.73C956.332 512.446 956.017 512.07 956.017 511.61C956.017 511.151 956.338 510.774 956.73 510.774H978.737C979.136 510.774 979.451 511.151 979.451 511.61C979.451 512.07 979.136 512.446 978.737 512.446Z" fill="#719E1B"/>
<path d="M980.884 520.827H954.582C954.183 520.827 953.868 520.451 953.868 519.992C953.868 519.532 954.19 519.156 954.582 519.156H980.884C981.283 519.156 981.598 519.532 981.598 519.992C981.598 520.451 981.283 520.827 980.884 520.827Z" fill="#719E1B"/>
<path d="M983.033 529.209H952.435C952.036 529.209 951.721 528.832 951.721 528.373C951.721 527.914 952.042 527.537 952.435 527.537H983.033C983.431 527.537 983.746 527.914 983.746 528.373C983.746 528.832 983.431 529.209 983.033 529.209Z" fill="#719E1B"/>
<path d="M983.033 537.59H952.435C952.036 537.59 951.721 537.214 951.721 536.754C951.721 536.288 952.042 535.918 952.435 535.918H983.033C983.431 535.918 983.746 536.295 983.746 536.754C983.746 537.214 983.431 537.59 983.033 537.59Z" fill="#719E1B"/>
<path d="M980.884 545.972H954.582C954.183 545.972 953.868 545.595 953.868 545.136C953.868 544.676 954.19 544.3 954.582 544.3H980.884C981.283 544.3 981.598 544.676 981.598 545.136C981.598 545.595 981.283 545.972 980.884 545.972Z" fill="#719E1B"/>
<path d="M978.737 554.353H956.73C956.332 554.353 956.017 553.976 956.017 553.517C956.017 553.058 956.338 552.681 956.73 552.681H978.737C979.136 552.681 979.451 553.058 979.451 553.517C979.451 553.976 979.136 554.353 978.737 554.353Z" fill="#719E1B"/>
<path d="M975.162 562.734H958.879C958.48 562.734 958.165 562.358 958.165 561.898C958.165 561.432 958.487 561.063 958.879 561.063H975.162C975.561 561.063 975.876 561.439 975.876 561.898C975.876 562.358 975.554 562.734 975.162 562.734Z" fill="#719E1B"/>
<path d="M967.947 480.735C967.76 495.54 968.384 510.345 968.468 525.15C968.506 539.714 968.39 554.993 967.947 569.564C967.882 570.965 966.101 571.025 966.017 569.564C965.374 547.455 965.304 525.045 965.863 502.943C965.979 495.54 966.114 488.138 966.017 480.735C966.024 479.259 967.927 479.184 967.947 480.735Z" fill="#719E1B"/>
<path d="M922.306 683.967C922.306 703.937 913.02 725 901.56 725C890.101 725 880.814 703.937 880.814 683.967C880.814 653.709 890.101 642.933 901.56 642.933C913.02 642.933 922.306 653.709 922.306 683.967Z" fill="#8AC926"/>
<path d="M909.734 653.724H893.451C893.052 653.724 892.737 653.348 892.737 652.889C892.737 652.422 893.059 652.053 893.451 652.053H909.734C910.133 652.053 910.448 652.429 910.448 652.889C910.454 653.348 910.133 653.724 909.734 653.724Z" fill="#719E1B"/>
<path d="M913.316 662.098H891.31C890.911 662.098 890.596 661.722 890.596 661.262C890.596 660.803 890.917 660.426 891.31 660.426H913.316C913.715 660.426 914.03 660.803 914.03 661.262C914.03 661.722 913.708 662.098 913.316 662.098Z" fill="#719E1B"/>
<path d="M915.464 670.48H889.162C888.763 670.48 888.448 670.103 888.448 669.644C888.448 669.184 888.77 668.808 889.162 668.808H915.464C915.863 668.808 916.178 669.184 916.178 669.644C916.178 670.103 915.857 670.48 915.464 670.48Z" fill="#719E1B"/>
<path d="M917.611 678.861H887.013C886.614 678.861 886.299 678.484 886.299 678.025C886.299 677.558 886.62 677.189 887.013 677.189H917.611C918.009 677.189 918.325 677.566 918.325 678.025C918.325 678.492 918.003 678.861 917.611 678.861Z" fill="#719E1B"/>
<path d="M917.611 687.242H887.013C886.614 687.242 886.299 686.866 886.299 686.407C886.299 685.947 886.62 685.571 887.013 685.571H917.611C918.009 685.571 918.325 685.947 918.325 686.407C918.325 686.866 918.003 687.242 917.611 687.242Z" fill="#719E1B"/>
<path d="M915.464 695.624H889.162C888.763 695.624 888.448 695.247 888.448 694.788C888.448 694.329 888.77 693.952 889.162 693.952H915.464C915.863 693.952 916.178 694.329 916.178 694.788C916.178 695.247 915.857 695.624 915.464 695.624Z" fill="#719E1B"/>
<path d="M913.316 704.005H891.31C890.911 704.005 890.596 703.629 890.596 703.169C890.596 702.71 890.917 702.333 891.31 702.333H913.316C913.715 702.333 914.03 702.71 914.03 703.169C914.03 703.629 913.708 704.005 913.316 704.005Z" fill="#719E1B"/>
<path d="M909.734 712.386H893.451C893.052 712.386 892.737 712.01 892.737 711.551C892.737 711.091 893.059 710.715 893.451 710.715H909.734C910.133 710.715 910.448 711.091 910.448 711.551C910.448 712.01 910.133 712.386 909.734 712.386Z" fill="#719E1B"/>
<path d="M902.525 630.388C902.338 645.192 902.962 659.997 903.046 674.802C903.084 689.366 902.969 704.645 902.525 719.217C902.461 720.617 900.679 720.678 900.596 719.217C899.952 697.107 899.882 674.697 900.441 652.595C900.557 645.192 900.692 637.79 900.596 630.388C900.596 628.919 902.506 628.836 902.525 630.388Z" fill="#719E1B"/>
<path d="M1644.32 683.967C1644.32 703.937 1635.03 725 1623.57 725C1612.11 725 1602.83 703.937 1602.83 683.967C1602.83 653.709 1612.11 642.933 1623.57 642.933C1635.03 642.933 1644.32 653.709 1644.32 683.967Z" fill="#8AC926"/>
<path d="M1631.75 653.724H1615.47C1615.07 653.724 1614.76 653.348 1614.76 652.888C1614.76 652.422 1615.08 652.053 1615.47 652.053H1631.75C1632.15 652.053 1632.47 652.429 1632.47 652.888C1632.47 653.348 1632.14 653.724 1631.75 653.724Z" fill="#719E1B"/>
<path d="M1635.33 662.098H1613.32C1612.92 662.098 1612.61 661.722 1612.61 661.262C1612.61 660.803 1612.93 660.426 1613.32 660.426H1635.33C1635.73 660.426 1636.04 660.803 1636.04 661.262C1636.04 661.722 1635.73 662.098 1635.33 662.098Z" fill="#719E1B"/>
<path d="M1637.48 670.48H1611.17C1610.78 670.48 1610.46 670.103 1610.46 669.644C1610.46 669.184 1610.78 668.808 1611.17 668.808H1637.48C1637.87 668.808 1638.19 669.184 1638.19 669.644C1638.19 670.103 1637.87 670.48 1637.48 670.48Z" fill="#719E1B"/>
<path d="M1639.62 678.861H1609.03C1608.63 678.861 1608.31 678.484 1608.31 678.025C1608.31 677.558 1608.63 677.189 1609.03 677.189H1639.62C1640.02 677.189 1640.34 677.566 1640.34 678.025C1640.34 678.492 1640.02 678.861 1639.62 678.861Z" fill="#719E1B"/>
<path d="M1639.62 687.242H1609.03C1608.63 687.242 1608.31 686.866 1608.31 686.406C1608.31 685.947 1608.63 685.571 1609.03 685.571H1639.62C1640.02 685.571 1640.34 685.947 1640.34 686.406C1640.34 686.866 1640.02 687.242 1639.62 687.242Z" fill="#719E1B"/>
<path d="M1637.48 695.624H1611.17C1610.78 695.624 1610.46 695.247 1610.46 694.788C1610.46 694.328 1610.78 693.952 1611.17 693.952H1637.48C1637.87 693.952 1638.19 694.328 1638.19 694.788C1638.19 695.247 1637.87 695.624 1637.48 695.624Z" fill="#719E1B"/>
<path d="M1635.33 704.005H1613.32C1612.92 704.005 1612.61 703.629 1612.61 703.169C1612.61 702.71 1612.93 702.333 1613.32 702.333H1635.33C1635.73 702.333 1636.04 702.71 1636.04 703.169C1636.04 703.629 1635.73 704.005 1635.33 704.005Z" fill="#719E1B"/>
<path d="M1631.75 712.386H1615.47C1615.07 712.386 1614.76 712.01 1614.76 711.551C1614.76 711.091 1615.08 710.715 1615.47 710.715H1631.75C1632.15 710.715 1632.47 711.091 1632.47 711.551C1632.47 712.01 1632.14 712.386 1631.75 712.386Z" fill="#719E1B"/>
<path d="M1624.54 630.388C1624.35 645.192 1624.97 659.997 1625.06 674.802C1625.1 689.366 1624.98 704.645 1624.54 719.217C1624.47 720.617 1622.69 720.678 1622.61 719.217C1621.97 697.107 1621.89 674.697 1622.45 652.595C1622.57 645.192 1622.7 637.79 1622.61 630.388C1622.61 628.919 1624.52 628.836 1624.54 630.388Z" fill="#719E1B"/>
<path d="M1709.71 683.967C1709.71 703.937 1700.42 725 1688.96 725C1677.5 725 1668.22 703.937 1668.22 683.967C1668.22 653.709 1677.5 642.933 1688.96 642.933C1700.42 642.933 1709.71 653.709 1709.71 683.967Z" fill="#8AC926"/>
<path d="M1697.14 653.724H1680.85C1680.45 653.724 1680.14 653.348 1680.14 652.889C1680.14 652.422 1680.46 652.053 1680.85 652.053H1697.14C1697.54 652.053 1697.85 652.429 1697.85 652.889C1697.85 653.348 1697.54 653.724 1697.14 653.724Z" fill="#719E1B"/>
<path d="M1700.72 662.098H1678.71C1678.31 662.098 1678 661.722 1678 661.262C1678 660.803 1678.32 660.426 1678.71 660.426H1700.72C1701.12 660.426 1701.43 660.803 1701.43 661.262C1701.43 661.722 1701.11 662.098 1700.72 662.098Z" fill="#719E1B"/>
<path d="M1702.87 670.48H1676.56C1676.16 670.48 1675.85 670.103 1675.85 669.644C1675.85 669.184 1676.17 668.808 1676.56 668.808H1702.87C1703.26 668.808 1703.58 669.184 1703.58 669.644C1703.58 670.103 1703.26 670.48 1702.87 670.48Z" fill="#719E1B"/>
<path d="M1705.01 678.861H1674.41C1674.01 678.861 1673.7 678.484 1673.7 678.025C1673.7 677.558 1674.02 677.189 1674.41 677.189H1705.01C1705.41 677.189 1705.72 677.566 1705.72 678.025C1705.73 678.492 1705.41 678.861 1705.01 678.861Z" fill="#719E1B"/>
<path d="M1705.01 687.242H1674.41C1674.01 687.242 1673.7 686.866 1673.7 686.407C1673.7 685.947 1674.02 685.571 1674.41 685.571H1705.01C1705.41 685.571 1705.72 685.947 1705.72 686.407C1705.72 686.866 1705.41 687.242 1705.01 687.242Z" fill="#719E1B"/>
<path d="M1702.87 695.624H1676.56C1676.16 695.624 1675.85 695.247 1675.85 694.788C1675.85 694.329 1676.17 693.952 1676.56 693.952H1702.87C1703.26 693.952 1703.58 694.329 1703.58 694.788C1703.58 695.247 1703.26 695.624 1702.87 695.624Z" fill="#719E1B"/>
<path d="M1700.72 704.005H1678.71C1678.31 704.005 1678 703.629 1678 703.169C1678 702.71 1678.32 702.333 1678.71 702.333H1700.72C1701.12 702.333 1701.43 702.71 1701.43 703.169C1701.43 703.629 1701.11 704.005 1700.72 704.005Z" fill="#719E1B"/>
<path d="M1697.14 712.386H1680.85C1680.45 712.386 1680.14 712.01 1680.14 711.551C1680.14 711.091 1680.46 710.715 1680.85 710.715H1697.14C1697.54 710.715 1697.85 711.091 1697.85 711.551C1697.85 712.01 1697.54 712.386 1697.14 712.386Z" fill="#719E1B"/>
<path d="M1689.93 630.388C1689.74 645.192 1690.36 659.997 1690.45 674.802C1690.49 689.366 1690.37 704.645 1689.93 719.217C1689.86 720.617 1688.08 720.678 1688 719.217C1687.35 697.107 1687.28 674.697 1687.84 652.595C1687.96 645.192 1688.09 637.79 1688 630.388C1688 628.919 1689.9 628.836 1689.93 630.388Z" fill="#719E1B"/>
<path d="M1775.9 683.967C1775.9 703.937 1766.61 725 1755.16 725C1743.7 725 1734.41 703.937 1734.41 683.967C1734.41 653.709 1743.7 642.933 1755.16 642.933C1766.61 642.933 1775.9 653.709 1775.9 683.967Z" fill="#8AC926"/>
<path d="M1763.34 653.724H1747.05C1746.65 653.724 1746.34 653.348 1746.34 652.889C1746.34 652.422 1746.66 652.053 1747.05 652.053H1763.34C1763.73 652.053 1764.05 652.429 1764.05 652.889C1764.05 653.348 1763.73 653.724 1763.34 653.724Z" fill="#719E1B"/>
<path d="M1766.91 662.098H1744.9C1744.51 662.098 1744.19 661.722 1744.19 661.262C1744.19 660.803 1744.51 660.426 1744.9 660.426H1766.91C1767.31 660.426 1767.62 660.803 1767.62 661.262C1767.62 661.722 1767.31 662.098 1766.91 662.098Z" fill="#719E1B"/>
<path d="M1769.06 670.48H1742.76C1742.36 670.48 1742.04 670.103 1742.04 669.644C1742.04 669.184 1742.36 668.808 1742.76 668.808H1769.06C1769.46 668.808 1769.77 669.184 1769.77 669.644C1769.77 670.103 1769.46 670.48 1769.06 670.48Z" fill="#719E1B"/>
<path d="M1771.21 678.861H1740.61C1740.21 678.861 1739.89 678.484 1739.89 678.025C1739.89 677.558 1740.22 677.189 1740.61 677.189H1771.21C1771.6 677.189 1771.92 677.566 1771.92 678.025C1771.92 678.492 1771.6 678.861 1771.21 678.861Z" fill="#719E1B"/>
<path d="M1771.21 687.242H1740.61C1740.21 687.242 1739.89 686.866 1739.89 686.407C1739.89 685.947 1740.22 685.571 1740.61 685.571H1771.21C1771.6 685.571 1771.92 685.947 1771.92 686.407C1771.92 686.866 1771.6 687.242 1771.21 687.242Z" fill="#719E1B"/>
<path d="M1769.06 695.624H1742.76C1742.36 695.624 1742.04 695.247 1742.04 694.788C1742.04 694.328 1742.36 693.952 1742.76 693.952H1769.06C1769.46 693.952 1769.77 694.328 1769.77 694.788C1769.77 695.247 1769.46 695.624 1769.06 695.624Z" fill="#719E1B"/>
<path d="M1766.91 704.005H1744.9C1744.51 704.005 1744.19 703.629 1744.19 703.169C1744.19 702.71 1744.51 702.333 1744.9 702.333H1766.91C1767.31 702.333 1767.62 702.71 1767.62 703.169C1767.62 703.629 1767.31 704.005 1766.91 704.005Z" fill="#719E1B"/>
<path d="M1763.34 712.386H1747.05C1746.65 712.386 1746.34 712.01 1746.34 711.551C1746.34 711.091 1746.66 710.715 1747.05 710.715H1763.34C1763.73 710.715 1764.05 711.091 1764.05 711.551C1764.05 712.01 1763.73 712.386 1763.34 712.386Z" fill="#719E1B"/>
<path d="M1756.12 630.388C1755.93 645.192 1756.56 659.997 1756.64 674.802C1756.68 689.366 1756.56 704.645 1756.12 719.217C1756.05 720.617 1754.27 720.677 1754.19 719.217C1753.55 697.107 1753.48 674.697 1754.03 652.595C1754.15 645.192 1754.29 637.79 1754.19 630.388C1754.19 628.919 1756.1 628.836 1756.12 630.388Z" fill="#719E1B"/>
<path d="M1907.52 683.967C1907.52 703.937 1898.24 725 1886.78 725C1875.32 725 1866.03 703.937 1866.03 683.967C1866.03 653.709 1875.32 642.933 1886.78 642.933C1898.24 642.933 1907.52 653.709 1907.52 683.967Z" fill="#8AC926"/>
<path d="M1894.96 653.724H1878.67C1878.27 653.724 1877.96 653.348 1877.96 652.888C1877.96 652.422 1878.28 652.053 1878.67 652.053H1894.96C1895.35 652.053 1895.67 652.429 1895.67 652.888C1895.67 653.348 1895.35 653.724 1894.96 653.724Z" fill="#719E1B"/>
<path d="M1898.53 662.098H1876.53C1876.13 662.098 1875.81 661.722 1875.81 661.262C1875.81 660.803 1876.13 660.426 1876.53 660.426H1898.53C1898.93 660.426 1899.25 660.803 1899.25 661.262C1899.25 661.722 1898.93 662.098 1898.53 662.098Z" fill="#719E1B"/>
<path d="M1900.68 670.48H1874.38C1873.98 670.48 1873.66 670.103 1873.66 669.644C1873.66 669.184 1873.98 668.808 1874.38 668.808H1900.68C1901.08 668.808 1901.39 669.184 1901.39 669.644C1901.39 670.103 1901.07 670.48 1900.68 670.48Z" fill="#719E1B"/>
<path d="M1902.83 678.861H1872.23C1871.83 678.861 1871.52 678.484 1871.52 678.025C1871.52 677.558 1871.84 677.189 1872.23 677.189H1902.83C1903.23 677.189 1903.54 677.566 1903.54 678.025C1903.54 678.492 1903.22 678.861 1902.83 678.861Z" fill="#719E1B"/>
<path d="M1902.83 687.242H1872.23C1871.83 687.242 1871.52 686.866 1871.52 686.406C1871.52 685.947 1871.84 685.571 1872.23 685.571H1902.83C1903.23 685.571 1903.54 685.947 1903.54 686.406C1903.54 686.866 1903.22 687.242 1902.83 687.242Z" fill="#719E1B"/>
<path d="M1900.68 695.624H1874.38C1873.98 695.624 1873.66 695.247 1873.66 694.788C1873.66 694.328 1873.98 693.952 1874.38 693.952H1900.68C1901.08 693.952 1901.39 694.328 1901.39 694.788C1901.39 695.247 1901.07 695.624 1900.68 695.624Z" fill="#719E1B"/>
<path d="M1898.53 704.005H1876.53C1876.13 704.005 1875.81 703.629 1875.81 703.169C1875.81 702.71 1876.13 702.333 1876.53 702.333H1898.53C1898.93 702.333 1899.25 702.71 1899.25 703.169C1899.25 703.629 1898.93 704.005 1898.53 704.005Z" fill="#719E1B"/>
<path d="M1894.96 712.386H1878.67C1878.27 712.386 1877.96 712.01 1877.96 711.551C1877.96 711.091 1878.28 710.715 1878.67 710.715H1894.96C1895.35 710.715 1895.67 711.091 1895.67 711.551C1895.67 712.01 1895.35 712.386 1894.96 712.386Z" fill="#719E1B"/>
<path d="M1887.74 630.388C1887.55 645.192 1888.18 659.997 1888.26 674.802C1888.3 689.366 1888.18 704.645 1887.74 719.217C1887.68 720.617 1885.89 720.678 1885.81 719.217C1885.17 697.107 1885.1 674.697 1885.66 652.595C1885.77 645.192 1885.91 637.79 1885.81 630.388C1885.81 628.919 1887.72 628.836 1887.74 630.388Z" fill="#719E1B"/>
<path d="M840.447 112.52C848.807 109.651 857.676 101.028 857.656 89.9885C857.811 80.9294 852.01 72.3673 852.171 63.4061C852.068 54.1286 856.46 44.6628 853.939 35.4606C848.936 20.0759 835.303 32.7045 830.106 41.1838C820.801 54.7762 814.267 71.7649 814.64 89.2054C815.09 103.453 828.235 115.456 840.061 112.633L840.447 112.52Z" fill="#FB4202"/>
<path d="M834.119 86.163C830.131 87.5336 825.9 91.6452 825.913 96.909C825.836 101.231 828.607 105.313 828.53 109.59C828.582 114.018 826.485 118.529 827.688 122.919C830.073 130.254 836.575 124.237 839.051 120.193C843.488 113.709 846.607 105.607 846.427 97.293C846.215 90.5006 839.945 84.7699 834.299 86.1178L834.119 86.163Z" fill="#CDA466"/>
<path d="M971.29 112.52C979.65 109.651 988.518 101.028 988.499 89.9885C988.653 80.9294 982.853 72.3673 983.014 63.4061C982.911 54.1286 987.303 44.6628 984.782 35.4606C979.779 20.0759 966.145 32.7045 960.949 41.1838C951.644 54.7762 945.11 71.7649 945.483 89.2054C945.933 103.453 959.078 115.456 970.904 112.633L971.29 112.52Z" fill="#FB4202"/>
<path d="M964.961 86.163C960.974 87.5336 956.743 91.6452 956.755 96.909C956.678 101.231 959.45 105.313 959.373 109.59C959.424 114.018 957.328 118.529 958.53 122.919C960.916 130.254 967.418 124.237 969.894 120.193C974.331 113.709 977.45 105.607 977.27 97.293C977.058 90.5006 970.788 84.7699 965.141 86.1178L964.961 86.163Z" fill="#CDA466"/>
<path d="M1907.52 3.48643H1594.04C1593.51 3.48643 1593.08 2.98189 1593.08 2.35686C1593.08 1.73183 1593.51 1.22729 1594.04 1.22729H1907.52C1908.06 1.22729 1908.49 1.73183 1908.49 2.35686C1908.49 2.98189 1908.06 3.48643 1907.52 3.48643Z" fill="#719E1B"/>
<path d="M843.444 3.25913H529.965C529.431 3.25913 529 2.75459 529 2.12957C529 1.50454 529.431 1 529.965 1H843.444C843.978 1 844.409 1.50454 844.409 2.12957C844.409 2.75459 843.978 3.25913 843.444 3.25913Z" fill="#719E1B"/>
<path d="M2128.44 3.25913H1814.96C1814.43 3.25913 1814 2.75459 1814 2.12957C1814 1.50454 1814.43 1 1814.96 1H2128.44C2128.98 1 2129.41 1.50454 2129.41 2.12957C2129.41 2.75459 2128.98 3.25913 2128.44 3.25913Z" fill="#719E1B"/>
<path d="M1562.42 112.52C1570.78 109.651 1579.65 101.028 1579.63 89.9886C1579.79 80.9295 1573.98 72.3674 1574.15 63.4062C1574.04 54.1287 1578.43 44.6629 1575.91 35.4607C1570.91 20.076 1557.28 32.7045 1552.08 41.1838C1542.78 54.7763 1536.24 71.7649 1536.61 89.2054C1537.06 103.453 1550.21 115.457 1562.04 112.633L1562.42 112.52Z" fill="#FEAA24"/>
<path d="M1556.09 86.1632C1552.11 87.5337 1547.88 91.6453 1547.89 96.9091C1547.81 101.232 1550.58 105.313 1550.51 109.59C1550.56 114.018 1548.46 118.529 1549.66 122.919C1552.05 130.254 1558.55 124.237 1561.03 120.193C1565.46 113.709 1568.58 105.607 1568.4 97.2932C1568.19 90.5007 1561.92 84.77 1556.27 86.118L1556.09 86.1632Z" fill="#CDA466"/>
<path d="M1825.66 112.301C1834.02 109.432 1842.89 100.81 1842.87 89.7701C1843.03 80.711 1837.23 72.1489 1837.39 63.1876C1837.28 53.9101 1841.68 44.4444 1839.16 35.2422C1834.15 19.8575 1820.52 32.486 1815.32 40.9653C1806.02 54.5578 1799.48 71.5464 1799.86 88.9869C1800.31 103.235 1813.45 115.238 1825.28 112.414L1825.66 112.301Z" fill="#FEAA24"/>
<path d="M1819.34 85.9446C1815.35 87.3152 1811.12 91.4268 1811.13 96.6906C1811.05 101.013 1813.82 105.095 1813.75 109.372C1813.8 113.8 1811.7 118.31 1812.9 122.701C1815.29 130.035 1821.79 124.019 1824.27 119.975C1828.71 113.491 1831.82 105.388 1831.64 97.0746C1831.43 90.2822 1825.16 84.5515 1819.52 85.8995L1819.34 85.9446Z" fill="#CDA466"/>
<path d="M1759.46 112.301C1767.82 109.432 1776.69 100.81 1776.67 89.7701C1776.83 80.711 1771.03 72.1489 1771.19 63.1877C1771.09 53.9102 1775.48 44.4444 1772.96 35.2422C1767.95 19.8576 1754.32 32.4861 1749.12 40.9654C1739.82 54.5578 1733.28 71.5465 1733.66 88.987C1734.11 103.235 1747.25 115.238 1759.08 112.414L1759.46 112.301Z" fill="#FB4202"/>
<path d="M1753.14 85.9446C1749.15 87.3152 1744.92 91.4268 1744.93 96.6906C1744.85 101.013 1747.62 105.095 1747.55 109.372C1747.6 113.8 1745.5 118.31 1746.71 122.701C1749.09 130.035 1755.59 124.019 1758.07 119.975C1762.51 113.491 1765.62 105.388 1765.44 97.0746C1765.23 90.2822 1758.96 84.5515 1753.32 85.8995L1753.14 85.9446Z" fill="#CDA466"/>
<path d="M1168.33 262.172C1176.69 259.303 1185.56 250.68 1185.54 239.641C1185.7 230.582 1179.89 222.02 1180.06 213.058C1179.95 203.781 1184.34 194.315 1181.82 185.113C1176.82 169.728 1163.19 182.357 1157.99 190.836C1148.69 204.429 1142.15 221.417 1142.52 238.858C1142.98 253.105 1156.12 265.109 1167.95 262.285L1168.33 262.172Z" fill="#FB4202"/>
<path d="M1162.01 235.823C1158.02 237.193 1153.79 241.305 1153.8 246.569C1153.73 250.891 1156.5 254.973 1156.42 259.25C1156.47 263.678 1154.38 268.189 1155.58 272.579C1157.97 279.914 1164.47 273.897 1166.94 269.853C1171.38 263.369 1174.5 255.267 1174.32 246.953C1174.11 240.16 1167.84 234.43 1162.19 235.778L1162.01 235.823Z" fill="#CDA466"/>
<path d="M840.447 262.172C848.807 259.303 857.676 250.68 857.656 239.641C857.811 230.582 852.01 222.02 852.171 213.058C852.068 203.781 856.46 194.315 853.939 185.113C848.936 169.728 835.303 182.357 830.106 190.836C820.801 204.429 814.267 221.417 814.64 238.858C815.09 253.105 828.235 265.109 840.061 262.285L840.447 262.172Z" fill="#FEAA24"/>
<path d="M834.119 235.823C830.131 237.194 825.9 241.305 825.913 246.569C825.836 250.891 828.607 254.973 828.53 259.25C828.582 263.678 826.485 268.189 827.688 272.579C830.073 279.914 836.575 273.897 839.051 269.853C843.488 263.369 846.607 255.267 846.427 246.953C846.215 240.161 839.945 234.43 834.299 235.778L834.119 235.823Z" fill="#CDA466"/>
<path d="M905.868 262.172C914.228 259.303 923.096 250.68 923.077 239.641C923.232 230.582 917.431 222.02 917.592 213.058C917.489 203.781 921.881 194.315 919.36 185.113C914.357 169.728 900.723 182.357 895.527 190.836C886.222 204.429 879.688 221.417 880.061 238.858C880.511 253.105 893.656 265.109 905.482 262.285L905.868 262.172Z" fill="#FB4202"/>
<path d="M899.54 235.823C895.553 237.194 891.322 241.305 891.335 246.569C891.257 250.891 894.029 254.973 893.952 259.25C894.003 263.678 891.907 268.189 893.11 272.579C895.495 279.914 901.997 273.897 904.473 269.853C908.91 263.369 912.029 255.267 911.849 246.953C911.637 240.161 905.367 234.43 899.72 235.778L899.54 235.823Z" fill="#CDA466"/>
<path d="M775.02 262.172C783.38 259.303 792.248 250.68 792.229 239.641C792.383 230.582 786.582 222.02 786.743 213.058C786.64 203.781 791.032 194.315 788.512 185.113C783.508 169.728 769.875 182.357 764.679 190.836C755.373 204.429 748.839 221.417 749.212 238.858C749.663 253.105 762.807 265.109 774.634 262.285L775.02 262.172Z" fill="#FB4202"/>
<path d="M768.691 235.823C764.704 237.194 760.472 241.305 760.485 246.569C760.408 250.891 763.18 254.973 763.102 259.25C763.154 263.678 761.057 268.189 762.26 272.579C764.646 279.914 771.147 273.897 773.623 269.853C778.061 263.369 781.18 255.267 780.999 246.953C780.787 240.161 774.517 234.43 768.871 235.778L768.691 235.823Z" fill="#CDA466"/>
<path d="M775.02 561.484C783.38 558.615 792.248 549.993 792.229 538.953C792.383 529.894 786.582 521.332 786.743 512.371C786.64 503.093 791.032 493.628 788.512 484.425C783.508 469.041 769.875 481.669 764.679 490.148C755.373 503.741 748.839 520.73 749.212 538.17C749.663 552.418 762.807 564.421 774.634 561.597L775.02 561.484Z" fill="#FB4202"/>
<path d="M768.691 535.135C764.704 536.506 760.472 540.617 760.485 545.881C760.408 550.204 763.18 554.285 763.102 558.562C763.154 562.99 761.057 567.501 762.26 571.891C764.646 579.226 771.147 573.209 773.623 569.165C778.061 562.682 781.18 554.579 780.999 546.265C780.787 539.473 774.517 533.742 768.871 535.09L768.691 535.135Z" fill="#CDA466"/>
<path d="M1235.38 261.131C1243.74 258.261 1252.61 249.639 1252.59 238.599C1252.74 229.54 1246.94 220.978 1247.1 212.017C1247 202.74 1251.39 193.274 1248.87 184.072C1243.87 168.687 1230.24 181.315 1225.04 189.795C1215.73 203.387 1209.2 220.376 1209.57 237.816C1210.02 252.064 1223.17 264.067 1235 261.244L1235.38 261.131Z" fill="#FB4202"/>
<path d="M1229.05 234.782C1225.07 236.152 1220.83 240.264 1220.85 245.528C1220.77 249.85 1223.54 253.932 1223.46 258.209C1223.52 262.637 1221.42 267.148 1222.62 271.538C1225.01 278.872 1231.51 272.856 1233.99 268.812C1238.42 262.328 1241.54 254.225 1241.36 245.912C1241.15 239.119 1234.88 233.389 1229.23 234.737L1229.05 234.782Z" fill="#CDA466"/>
<path d="M1235.38 261.131C1243.74 258.261 1252.61 249.639 1252.59 238.599C1252.74 229.54 1246.94 220.978 1247.1 212.017C1247 202.74 1251.39 193.274 1248.87 184.072C1243.87 168.687 1230.24 181.315 1225.04 189.795C1215.73 203.387 1209.2 220.376 1209.57 237.816C1210.02 252.064 1223.17 264.067 1235 261.244L1235.38 261.131Z" fill="#FEAA24"/>
<path d="M1229.05 234.782C1225.07 236.152 1220.83 240.264 1220.85 245.528C1220.77 249.85 1223.54 253.932 1223.46 258.209C1223.52 262.637 1221.42 267.148 1222.62 271.538C1225.01 278.872 1231.51 272.856 1233.99 268.812C1238.42 262.328 1241.54 254.225 1241.36 245.912C1241.15 239.119 1234.88 233.389 1229.23 234.737L1229.05 234.782Z" fill="#CDA466"/>
<path d="M1562.42 262.172C1570.78 259.303 1579.65 250.68 1579.63 239.641C1579.79 230.582 1573.98 222.02 1574.15 213.058C1574.04 203.781 1578.43 194.315 1575.91 185.113C1570.91 169.728 1557.28 182.357 1552.08 190.836C1542.78 204.428 1536.24 221.417 1536.61 238.858C1537.06 253.105 1550.21 265.109 1562.04 262.285L1562.42 262.172Z" fill="#FB4202"/>
<path d="M1556.09 235.823C1552.11 237.193 1547.88 241.305 1547.89 246.569C1547.81 250.891 1550.58 254.973 1550.51 259.25C1550.56 263.678 1548.46 268.189 1549.66 272.579C1552.05 279.914 1558.55 273.897 1561.03 269.853C1565.46 263.369 1568.58 255.267 1568.4 246.953C1568.19 240.16 1561.92 234.43 1556.27 235.778L1556.09 235.823Z" fill="#CDA466"/>
<path d="M1693.27 262.172C1701.63 259.303 1710.5 250.68 1710.48 239.641C1710.63 230.582 1704.83 222.02 1704.99 213.058C1704.89 203.781 1709.28 194.315 1706.76 185.113C1701.76 169.728 1688.13 182.357 1682.93 190.836C1673.62 204.428 1667.09 221.417 1667.46 238.858C1667.91 253.105 1681.06 265.109 1692.88 262.285L1693.27 262.172Z" fill="#FB4202"/>
<path d="M1686.94 235.823C1682.96 237.194 1678.72 241.305 1678.74 246.569C1678.66 250.891 1681.43 254.973 1681.35 259.25C1681.41 263.678 1679.31 268.189 1680.51 272.579C1682.9 279.914 1689.4 273.897 1691.88 269.853C1696.31 263.369 1699.43 255.267 1699.25 246.953C1699.04 240.161 1692.77 234.43 1687.12 235.778L1686.94 235.823Z" fill="#CDA466"/>
<path d="M1825.66 261.954C1834.02 259.084 1842.89 250.462 1842.87 239.422C1843.03 230.363 1837.23 221.801 1837.39 212.84C1837.28 203.562 1841.68 194.097 1839.16 184.895C1834.15 169.51 1820.52 182.138 1815.32 190.618C1806.02 204.21 1799.48 221.199 1799.86 238.639C1800.31 252.887 1813.45 264.89 1825.28 262.066L1825.66 261.954Z" fill="#FB4202"/>
<path d="M1819.34 235.597C1815.35 236.968 1811.12 241.079 1811.13 246.343C1811.05 250.665 1813.82 254.747 1813.75 259.024C1813.8 263.452 1811.7 267.963 1812.9 272.353C1815.29 279.688 1821.79 273.671 1824.27 269.627C1828.71 263.143 1831.82 255.041 1831.64 246.727C1831.43 239.935 1825.16 234.204 1819.52 235.552L1819.34 235.597Z" fill="#CDA466"/>
<path d="M840.447 561.484C848.807 558.615 857.676 549.993 857.656 538.953C857.811 529.894 852.01 521.332 852.171 512.371C852.068 503.093 856.46 493.628 853.939 484.425C848.936 469.041 835.303 481.669 830.106 490.149C820.801 503.741 814.267 520.73 814.64 538.17C815.09 552.418 828.235 564.421 840.061 561.597L840.447 561.484Z" fill="#FEAA24"/>
<path d="M834.119 535.135C830.131 536.506 825.9 540.617 825.913 545.881C825.836 550.204 828.607 554.285 828.53 558.562C828.582 562.99 826.485 567.501 827.688 571.891C830.073 579.226 836.575 573.209 839.051 569.165C843.488 562.682 846.607 554.579 846.427 546.265C846.215 539.473 839.945 533.742 834.299 535.09L834.119 535.135Z" fill="#CDA466"/>
<path d="M1037.49 561.484C1045.85 558.615 1054.72 549.993 1054.7 538.953C1054.85 529.894 1049.05 521.332 1049.21 512.371C1049.11 503.093 1053.5 493.628 1050.98 484.425C1045.98 469.041 1032.34 481.669 1027.15 490.149C1017.84 503.741 1011.31 520.73 1011.68 538.17C1012.13 552.418 1025.28 564.421 1037.1 561.597L1037.49 561.484Z" fill="#FB4202"/>
<path d="M1031.16 535.135C1027.17 536.506 1022.94 540.617 1022.95 545.881C1022.88 550.204 1025.65 554.285 1025.57 558.562C1025.62 562.99 1023.53 567.501 1024.73 571.891C1027.12 579.226 1033.62 573.209 1036.09 569.165C1040.53 562.682 1043.65 554.579 1043.47 546.265C1043.26 539.473 1036.99 533.742 1031.34 535.09L1031.16 535.135Z" fill="#CDA466"/>
<path d="M1300.72 561.484C1309.08 558.615 1317.95 549.993 1317.93 538.953C1318.09 529.894 1312.29 521.332 1312.45 512.371C1312.34 503.093 1316.74 493.628 1314.22 484.425C1309.21 469.041 1295.58 481.669 1290.38 490.149C1281.08 503.741 1274.54 520.73 1274.92 538.17C1275.37 552.418 1288.51 564.421 1300.34 561.597L1300.72 561.484Z" fill="#FB4202"/>
<path d="M1294.4 535.135C1290.42 536.506 1286.18 540.617 1286.2 545.881C1286.12 550.204 1288.89 554.285 1288.81 558.562C1288.87 562.99 1286.77 567.501 1287.97 571.891C1290.36 579.226 1296.86 573.209 1299.34 569.165C1303.77 562.682 1306.89 554.579 1306.71 546.265C1306.5 539.473 1300.23 533.742 1294.58 535.09L1294.4 535.135Z" fill="#CDA466"/>
<path d="M1294.4 535.135C1290.42 536.506 1286.18 540.617 1286.2 545.881C1286.12 550.204 1288.89 554.285 1288.81 558.562C1288.87 562.99 1286.77 567.501 1287.97 571.891C1290.36 579.226 1296.86 573.209 1299.34 569.165C1303.77 562.682 1306.89 554.579 1306.71 546.265C1306.5 539.473 1300.23 533.742 1294.58 535.09L1294.4 535.135Z" fill="#CDA466"/>
<path d="M1234.53 561.484C1242.89 558.615 1251.76 549.993 1251.74 538.953C1251.89 529.894 1246.09 521.332 1246.25 512.371C1246.15 503.093 1250.54 493.628 1248.02 484.425C1243.02 469.041 1229.39 481.669 1224.19 490.149C1214.88 503.741 1208.35 520.73 1208.72 538.17C1209.17 552.418 1222.32 564.421 1234.15 561.597L1234.53 561.484Z" fill="#FB4202"/>
<path d="M1228.2 535.135C1224.22 536.506 1219.98 540.617 1220 545.881C1219.92 550.204 1222.69 554.285 1222.61 558.562C1222.67 562.99 1220.57 567.501 1221.77 571.891C1224.16 579.226 1230.66 573.209 1233.13 569.165C1237.57 562.682 1240.69 554.579 1240.51 546.265C1240.3 539.473 1234.03 533.742 1228.38 535.09L1228.2 535.135Z" fill="#CDA466"/>
<path d="M1234.53 561.484C1242.89 558.615 1251.76 549.993 1251.74 538.953C1251.89 529.894 1246.09 521.332 1246.25 512.371C1246.15 503.093 1250.54 493.628 1248.02 484.425C1243.02 469.041 1229.39 481.669 1224.19 490.149C1214.88 503.741 1208.35 520.73 1208.72 538.17C1209.17 552.418 1222.32 564.421 1234.15 561.597L1234.53 561.484Z" fill="#FEAA24"/>
<path d="M1228.2 535.135C1224.22 536.506 1219.98 540.617 1220 545.881C1219.92 550.204 1222.69 554.285 1222.61 558.562C1222.67 562.99 1220.57 567.501 1221.77 571.891C1224.16 579.226 1230.66 573.209 1233.13 569.165C1237.57 562.682 1240.69 554.579 1240.51 546.265C1240.3 539.473 1234.03 533.742 1228.38 535.09L1228.2 535.135Z" fill="#CDA466"/>
<path d="M1562.42 561.484C1570.78 558.615 1579.65 549.993 1579.63 538.953C1579.79 529.894 1573.98 521.332 1574.15 512.371C1574.04 503.093 1578.43 493.628 1575.91 484.425C1570.91 469.041 1557.28 481.669 1552.08 490.149C1542.78 503.741 1536.24 520.73 1536.61 538.17C1537.06 552.418 1550.21 564.421 1562.04 561.597L1562.42 561.484Z" fill="#FB4202"/>
<path d="M1556.09 535.135C1552.11 536.506 1547.88 540.617 1547.89 545.881C1547.81 550.204 1550.58 554.285 1550.51 558.562C1550.56 562.99 1548.46 567.501 1549.66 571.891C1552.05 579.226 1558.55 573.209 1561.03 569.165C1565.46 562.682 1568.58 554.579 1568.4 546.265C1568.19 539.473 1561.92 533.742 1556.27 535.09L1556.09 535.135Z" fill="#CDA466"/>
<path d="M1693.27 561.484C1701.63 558.615 1710.5 549.993 1710.48 538.953C1710.63 529.894 1704.83 521.332 1704.99 512.371C1704.89 503.093 1709.28 493.628 1706.76 484.425C1701.76 469.041 1688.13 481.669 1682.93 490.149C1673.62 503.741 1667.09 520.73 1667.46 538.17C1667.91 552.418 1681.06 564.421 1692.88 561.597L1693.27 561.484Z" fill="#FB4202"/>
<path d="M1686.94 535.135C1682.96 536.506 1678.72 540.617 1678.74 545.881C1678.66 550.204 1681.43 554.285 1681.35 558.562C1681.41 562.99 1679.31 567.501 1680.51 571.891C1682.9 579.226 1689.4 573.209 1691.88 569.165C1696.31 562.682 1699.43 554.579 1699.25 546.265C1699.04 539.473 1692.77 533.742 1687.12 535.09L1686.94 535.135Z" fill="#CDA466"/>
<path d="M1759.46 561.266C1767.82 558.397 1776.69 549.775 1776.67 538.735C1776.83 529.676 1771.03 521.114 1771.19 512.153C1771.09 502.875 1775.48 493.409 1772.96 484.207C1767.95 468.822 1754.32 481.451 1749.12 489.93C1739.82 503.523 1733.28 520.511 1733.66 537.952C1734.11 552.199 1747.25 564.203 1759.08 561.379L1759.46 561.266Z" fill="#FEAA24"/>
<path d="M1753.14 534.91C1749.15 536.28 1744.92 540.392 1744.93 545.655C1744.85 549.978 1747.62 554.059 1747.55 558.337C1747.6 562.765 1745.5 567.275 1746.71 571.666C1749.09 579 1755.59 572.983 1758.07 568.94C1762.51 562.456 1765.62 554.353 1765.44 546.039C1765.23 539.247 1758.96 533.516 1753.32 534.864L1753.14 534.91Z" fill="#CDA466"/>
<path d="M840.447 711.144C848.807 708.275 857.676 699.653 857.656 688.613C857.811 679.554 852.01 670.992 852.171 662.031C852.068 652.753 856.46 643.288 853.939 634.085C848.936 618.701 835.303 631.329 830.106 639.809C820.801 653.401 814.267 670.39 814.64 687.83C815.09 702.078 828.235 714.081 840.061 711.257L840.447 711.144Z" fill="#FB4202"/>
<path d="M834.119 684.788C830.131 686.158 825.9 690.27 825.913 695.534C825.836 699.856 828.607 703.938 828.53 708.215C828.582 712.643 826.485 717.154 827.688 721.544C830.073 728.878 836.575 722.862 839.051 718.818C843.488 712.334 846.607 704.231 846.427 695.918C846.215 689.125 839.945 683.395 834.299 684.743L834.119 684.788Z" fill="#CDA466"/>
<path d="M971.29 711.144C979.65 708.275 988.518 699.653 988.499 688.613C988.653 679.554 982.853 670.992 983.014 662.031C982.911 652.753 987.303 643.288 984.782 634.085C979.779 618.701 966.145 631.329 960.949 639.809C951.644 653.401 945.11 670.39 945.483 687.83C945.933 702.078 959.078 714.081 970.904 711.257L971.29 711.144Z" fill="#FB4202"/>
<path d="M964.961 684.788C960.974 686.158 956.743 690.27 956.755 695.534C956.678 699.856 959.45 703.938 959.373 708.215C959.424 712.643 957.328 717.154 958.53 721.544C960.916 728.878 967.418 722.862 969.894 718.818C974.331 712.334 977.45 704.231 977.27 695.918C977.058 689.125 970.788 683.395 965.141 684.743L964.961 684.788Z" fill="#CDA466"/>
<path d="M1102.91 711.144C1111.27 708.275 1120.14 699.653 1120.12 688.613C1120.27 679.554 1114.47 670.992 1114.63 662.031C1114.53 652.753 1118.92 643.288 1116.4 634.085C1111.4 618.701 1097.77 631.329 1092.57 639.809C1083.26 653.401 1076.73 670.39 1077.1 687.83C1077.55 702.078 1090.7 714.081 1102.52 711.257L1102.91 711.144Z" fill="#FB4202"/>
<path d="M1096.58 684.788C1092.6 686.158 1088.36 690.27 1088.38 695.534C1088.3 699.856 1091.07 703.938 1090.99 708.215C1091.05 712.643 1088.95 717.154 1090.15 721.544C1092.54 728.878 1099.04 722.862 1101.51 718.818C1105.95 712.334 1109.07 704.231 1108.89 695.918C1108.68 689.125 1102.41 683.395 1096.76 684.743L1096.58 684.788Z" fill="#CDA466"/>
<path d="M1725.44 602.111H1598.13C1597.59 602.111 1597.16 601.607 1597.16 600.982C1597.16 600.357 1597.59 599.852 1598.13 599.852H1725.44C1725.98 599.852 1726.41 600.357 1726.41 600.982C1726.41 601.607 1725.98 602.111 1725.44 602.111Z" fill="#719E1B"/>
<path d="M1562.42 711.144C1570.78 708.275 1579.65 699.653 1579.63 688.613C1579.79 679.554 1573.98 670.992 1574.15 662.031C1574.04 652.753 1578.43 643.288 1575.91 634.085C1570.91 618.701 1557.28 631.329 1552.08 639.809C1542.78 653.401 1536.24 670.39 1536.61 687.83C1537.06 702.078 1550.21 714.081 1562.04 711.257L1562.42 711.144Z" fill="#FEAA24"/>
<path d="M1556.09 684.788C1552.11 686.158 1547.88 690.27 1547.89 695.534C1547.81 699.856 1550.58 703.938 1550.51 708.215C1550.56 712.643 1548.46 717.154 1549.66 721.544C1552.05 728.878 1558.55 722.862 1561.03 718.818C1565.46 712.334 1568.58 704.231 1568.4 695.918C1568.19 689.125 1561.92 683.395 1556.27 684.743L1556.09 684.788Z" fill="#CDA466"/>
<path d="M775.02 711.144C783.38 708.275 792.248 699.653 792.229 688.613C792.383 679.554 786.582 670.992 786.743 662.031C786.64 652.753 791.032 643.288 788.512 634.085C783.508 618.701 769.875 631.329 764.679 639.809C755.373 653.401 748.839 670.39 749.212 687.83C749.663 702.078 762.807 714.081 774.634 711.257L775.02 711.144Z" fill="#FEAA24"/>
<path d="M768.691 684.788C764.704 686.158 760.472 690.27 760.485 695.534C760.408 699.856 763.18 703.938 763.102 708.215C763.154 712.643 761.057 717.154 762.26 721.544C764.646 728.878 771.147 722.862 773.623 718.818C778.061 712.334 781.18 704.231 780.999 695.918C780.787 689.125 774.517 683.395 768.871 684.743L768.691 684.788Z" fill="#CDA466"/>
<path d="M1622.61 631.984L1622.71 451.329C1622.71 450.772 1623.1 450.32 1623.57 450.32C1624.05 450.32 1624.43 450.772 1624.43 451.329L1624.54 631.984C1624.54 633.347 1622.68 633.596 1622.61 631.984Z" fill="#719E1B"/>
<path d="M2127.98 452.259H1607.96C1607.43 452.259 1607 451.755 1607 451.13C1607 450.505 1607.43 450 1607.96 450H2127.98C2128.51 450 2128.94 450.505 2128.94 451.13C2128.94 451.755 2128.51 452.259 2127.98 452.259Z" fill="#719E1B"/>
<path d="M531.695 3.25913H3.96463C3.43087 3.25913 3 2.75459 3 2.12957C3 1.50454 3.43087 1 3.96463 1H531.695C532.229 1 532.659 1.50454 532.659 2.12957C532.659 2.75459 532.229 3.25913 531.695 3.25913Z" fill="#719E1B"/>
<path d="M528.695 452.259H0.964631C0.430868 452.259 0 451.755 0 451.13C0 450.505 0.430868 450 0.964631 450H528.695C529.229 450 529.659 450.505 529.659 451.13C529.659 451.755 529.229 452.259 528.695 452.259Z" fill="#719E1B"/>
<path d="M2652.69 153.259H2124.96C2124.43 153.259 2124 152.755 2124 152.13C2124 151.505 2124.43 151 2124.96 151H2652.69C2653.23 151 2653.66 151.505 2653.66 152.13C2653.66 152.755 2653.23 153.259 2652.69 153.259Z" fill="#719E1B"/>
<path d="M2654.69 3.25913H2126.96C2126.43 3.25913 2126 2.75459 2126 2.12957C2126 1.50454 2126.43 1 2126.96 1H2654.69C2655.23 1 2655.66 1.50454 2655.66 2.12957C2655.66 2.75459 2655.23 3.25913 2654.69 3.25913Z" fill="#719E1B"/>
<path d="M2656.69 452.259H2128.96C2128.43 452.259 2128 451.755 2128 451.13C2128 450.505 2128.43 450 2128.96 450H2656.69C2657.23 450 2657.66 450.505 2657.66 451.13C2657.66 451.755 2657.23 452.259 2656.69 452.259Z" fill="#719E1B"/>
</svg>
