<svg viewBox="0 0 795 724" fill="none" xmlns="http://www.w3.org/2000/svg">
<path d="M226.964 0.347772C314.038 0.385424 464.984 0.189634 550.514 0.272469C561.8 0.415547 572 9.41442 575.37 21.9978C575.871 24.0009 576.193 25.8232 576.424 27.8941C576.534 28.9785 576.527 30.1382 576.591 31.2301C576.161 31.2677 577.556 31.3054 575.633 31.3355C573.704 31.3054 575.093 31.2677 574.662 31.2376L574.656 31.1397L574.649 30.9364C574.585 30.0252 574.604 29.0463 574.508 28.1426C574.328 26.6591 574.083 24.8819 573.71 23.4436C570.9 11.41 561.138 2.62196 550.482 2.50148C465.517 2.36593 313.279 2.44123 226.964 2.36593C226.488 2.36593 226.103 1.9141 226.103 1.35685C226.103 0.799599 226.488 0.347772 226.964 0.347772Z" fill="#719E1B"/>
<path d="M226.964 0.347772C314.038 0.385424 464.984 0.189634 550.514 0.272469C561.8 0.415547 572 9.41442 575.37 21.9978C575.871 24.0009 576.193 25.8232 576.424 27.8941C576.534 28.9785 576.527 30.1382 576.591 31.2301C576.161 31.2677 577.556 31.3054 575.633 31.3355C573.704 31.3054 575.093 31.2677 574.662 31.2376L574.656 31.1397L574.649 30.9364C574.585 30.0252 574.604 29.0463 574.508 28.1426C574.328 26.6591 574.083 24.8819 573.71 23.4436C570.9 11.41 561.138 2.62196 550.482 2.50148C465.517 2.36593 313.279 2.44123 226.964 2.36593C226.488 2.36593 226.103 1.9141 226.103 1.35685C226.103 0.799599 226.488 0.347772 226.964 0.347772Z" fill="#719E1B"/>
<path d="M692.052 152.139H283.486C282.952 152.139 282.521 151.634 282.521 151.009C282.521 150.384 282.952 149.88 283.486 149.88H692.052C692.586 149.88 693.017 150.384 693.017 151.009C693.017 151.634 692.586 152.139 692.052 152.139Z" fill="#719E1B"/>
<path d="M754.695 451.451H226.965C226.431 451.451 226 450.947 226 450.322C226 449.696 226.431 449.192 226.965 449.192H754.695C755.229 449.192 755.659 449.696 755.659 450.322C755.659 450.947 755.229 451.451 754.695 451.451Z" fill="#719E1B"/>
<path d="M528.695 451.259H0.964631C0.430868 451.259 0 450.755 0 450.13C0 449.505 0.430868 449 0.964631 449H528.695C529.229 449 529.659 449.505 529.659 450.13C529.659 450.755 529.229 451.259 528.695 451.259Z" fill="#719E1B"/>
<path d="M554.856 601.111H283.222C282.689 601.111 282.258 600.607 282.258 599.982C282.258 599.357 282.689 598.852 283.222 598.852H554.856C555.39 598.852 555.821 599.357 555.821 599.982C555.821 600.607 555.39 601.111 554.856 601.111Z" fill="#719E1B"/>
<path d="M248.572 1.35675L248.675 30.7405C248.662 32.2165 246.772 32.2391 246.746 30.7481L246.849 1.35675C246.868 0.0464553 248.553 0.023864 248.572 1.35675Z" fill="#719E1B"/>
<path d="M323.434 181.748C322.901 181.748 322.47 181.244 322.47 180.619V151.235C322.47 150.61 322.901 150.106 323.434 150.106C323.968 150.106 324.399 150.61 324.399 151.235V180.619C324.399 181.244 323.968 181.748 323.434 181.748Z" fill="#719E1B"/>
<path d="M379.434 1.35682L379.524 30.7406C379.511 32.2166 377.62 32.2391 377.595 30.7481L377.685 1.35682C377.704 0.0239353 379.408 0.00887448 379.434 1.35682Z" fill="#719E1B"/>
<path d="M444.843 450.608L444.946 479.991C444.933 481.467 443.042 481.49 443.017 479.999L443.119 450.608C443.145 449.305 444.817 449.282 444.843 450.608Z" fill="#719E1B"/>
<path d="M513.607 152.139C513.073 152.139 512.643 151.634 512.643 151.009V1.35686C512.643 0.731834 513.073 0.227295 513.607 0.227295C514.141 0.227295 514.572 0.731834 514.572 1.35686V151.009C514.572 151.634 514.141 152.139 513.607 152.139Z" fill="#719E1B"/>
<path d="M323.435 33.4892C322.901 33.4892 322.47 32.9847 322.47 32.3597V31.3732C322.47 15.4463 311.402 2.48643 297.801 2.48643H293.718C293.184 2.48643 292.753 1.98189 292.753 1.35686C292.753 0.731834 293.184 0.227295 293.718 0.227295H297.801C312.464 0.227295 324.399 14.1963 324.399 31.3732V32.3597C324.399 32.9847 323.968 33.4892 323.435 33.4892Z" fill="#719E1B"/>
<path d="M387.523 183.142C386.99 183.142 386.559 182.637 386.559 182.012V181.026C386.559 165.099 375.491 152.139 361.89 152.139H357.806C357.273 152.139 356.842 151.634 356.842 151.009C356.842 150.384 357.273 149.88 357.806 149.88H361.89C376.552 149.88 388.488 163.849 388.488 181.026V182.012C388.488 182.637 388.057 183.142 387.523 183.142Z" fill="#719E1B"/>
<path d="M576.476 151.235L576.566 180.619C576.553 182.095 574.662 182.117 574.637 180.626L574.727 151.235C574.746 149.91 576.45 149.887 576.476 151.235Z" fill="#719E1B"/>
<path d="M652.553 183.142C652.019 183.142 651.588 182.637 651.588 182.012V181.025C651.588 165.099 640.521 152.139 626.919 152.139H622.836C622.302 152.139 621.871 151.634 621.871 151.009C621.871 150.384 622.302 149.88 622.836 149.88H626.919C641.582 149.88 653.517 163.849 653.517 181.025V182.012C653.517 182.637 653.087 183.142 652.553 183.142Z" fill="#719E1B"/>
<path d="M717.524 183.142C716.991 183.142 716.56 182.637 716.56 182.012V181.026C716.56 165.099 705.492 152.139 691.891 152.139H687.807C687.274 152.139 686.843 151.634 686.843 151.009C686.843 150.384 687.274 149.88 687.807 149.88H691.891C706.553 149.88 718.489 163.849 718.489 181.026V182.012C718.489 182.637 718.058 183.142 717.524 183.142Z" fill="#719E1B"/>
<path d="M784.412 482.454C783.878 482.454 783.448 481.949 783.448 481.324V480.338C783.448 464.411 772.38 451.451 758.779 451.451H754.695C754.161 451.451 753.73 450.947 753.73 450.322C753.73 449.696 754.161 449.192 754.695 449.192H758.779C773.441 449.192 785.377 463.161 785.377 480.338V481.324C785.377 481.949 784.946 482.454 784.412 482.454Z" fill="#719E1B"/>
<path d="M575.682 482.262C575.148 482.262 574.717 481.757 574.717 481.132V480.146C574.717 464.219 563.65 451.259 550.048 451.259H545.965C545.431 451.259 545 450.755 545 450.13C545 449.505 545.431 449 545.965 449H550.048C564.711 449 576.646 462.969 576.646 480.146V481.132C576.646 481.757 576.215 482.262 575.682 482.262Z" fill="#719E1B"/>
<path d="M717.396 482.454C716.863 482.454 716.432 481.949 716.432 481.324V480.338C716.432 463.168 728.361 449.192 743.03 449.192H747.113C747.647 449.192 748.078 449.696 748.078 450.322C748.078 450.947 747.647 451.451 747.113 451.451H743.03C729.428 451.451 718.361 464.411 718.361 480.338V481.324C718.361 481.949 717.93 482.454 717.396 482.454Z" fill="#719E1B"/>
<path d="M324.605 482.454C324.071 482.454 323.64 481.949 323.64 481.324V480.338C323.64 464.411 312.572 451.451 298.971 451.451H294.887C294.354 451.451 293.923 450.947 293.923 450.322C293.923 449.696 294.354 449.192 294.887 449.192H298.971C313.633 449.192 325.569 463.161 325.569 480.338V481.324C325.569 481.949 325.138 482.454 324.605 482.454Z" fill="#719E1B"/>
<path d="M584.566 632.114C584.033 632.114 583.602 631.609 583.602 630.984V629.998C583.602 614.071 572.534 601.111 558.933 601.111H554.849C554.316 601.111 553.885 600.607 553.885 599.982C553.885 599.357 554.316 598.852 554.849 598.852H558.933C573.595 598.852 585.531 612.821 585.531 629.998V630.984C585.531 631.609 585.1 632.114 584.566 632.114Z" fill="#719E1B"/>
<path d="M257.589 482.454C257.055 482.454 256.624 481.949 256.624 481.324V480.338C256.624 463.168 268.553 449.192 283.222 449.192H287.306C287.839 449.192 288.27 449.696 288.27 450.322C288.27 450.947 287.839 451.451 287.306 451.451H283.222C269.621 451.451 258.553 464.411 258.553 480.338V481.324C258.553 481.949 258.122 482.454 257.589 482.454Z" fill="#719E1B"/>
<path d="M257.589 632.114C257.055 632.114 256.624 631.609 256.624 630.984V629.998C256.624 612.829 268.553 598.852 283.222 598.852H287.306C287.839 598.852 288.27 599.357 288.27 599.982C288.27 600.607 287.839 601.111 287.306 601.111H283.222C269.621 601.111 258.553 614.071 258.553 629.998V630.984C258.553 631.609 258.122 632.114 257.589 632.114Z" fill="#719E1B"/>
<path d="M321.897 632.114C321.363 632.114 320.933 631.609 320.933 630.984V629.998C320.933 612.829 332.862 598.852 347.531 598.852H351.614C352.148 598.852 352.579 599.357 352.579 599.982C352.579 600.607 352.148 601.111 351.614 601.111H347.531C333.929 601.111 322.862 614.071 322.862 629.998V630.984C322.862 631.609 322.431 632.114 321.897 632.114Z" fill="#719E1B"/>
<path d="M453.73 632.114C453.196 632.114 452.766 631.609 452.766 630.984V629.998C452.766 612.829 464.695 598.852 479.364 598.852H483.447C483.981 598.852 484.412 599.357 484.412 599.982C484.412 600.607 483.981 601.111 483.447 601.111H479.364C465.762 601.111 454.695 614.071 454.695 629.998V630.984C454.695 631.609 454.264 632.114 453.73 632.114Z" fill="#719E1B"/>
<path d="M519.968 482.454C519.434 482.454 519.003 481.949 519.003 481.324V480.338C519.003 463.168 530.932 449.192 545.601 449.192H549.685C550.218 449.192 550.649 449.696 550.649 450.322C550.649 450.947 550.218 451.451 549.685 451.451H545.601C532 451.451 520.932 464.411 520.932 480.338V481.324C520.932 481.949 520.501 482.454 519.968 482.454Z" fill="#719E1B"/>
<path d="M454.496 33.4892C453.962 33.4892 453.531 32.9847 453.531 32.3597V31.3732C453.531 14.2038 465.461 0.227295 480.129 0.227295H484.213C484.747 0.227295 485.178 0.731834 485.178 1.35686C485.178 1.98189 484.747 2.48643 484.213 2.48643H480.129C466.528 2.48643 455.461 15.4463 455.461 31.3732V32.3597C455.461 32.9847 455.03 33.4892 454.496 33.4892Z" fill="#719E1B"/>
<path d="M257.851 183.142C257.318 183.142 256.887 182.637 256.887 182.012V181.026C256.887 163.856 268.816 149.88 283.485 149.88H287.568C288.102 149.88 288.533 150.384 288.533 151.009C288.533 151.634 288.102 152.139 287.568 152.139H283.485C269.884 152.139 258.816 165.099 258.816 181.026V182.012C258.816 182.637 258.385 183.142 257.851 183.142Z" fill="#719E1B"/>
<path d="M268.457 84.342C268.457 104.313 259.171 125.375 247.711 125.375C236.251 125.375 226.965 104.313 226.965 84.342C226.965 54.0847 236.251 43.3087 247.711 43.3087C259.171 43.3087 268.457 54.0847 268.457 84.342Z" fill="#8AC926"/>
<path d="M255.891 54.0998H239.608C239.21 54.0998 238.895 53.7233 238.895 53.2639C238.895 52.797 239.216 52.428 239.608 52.428H255.891C256.29 52.428 256.605 52.8046 256.605 53.2639C256.605 53.7233 256.284 54.0998 255.891 54.0998Z" fill="#719E1B"/>
<path d="M259.466 62.4811H237.46C237.061 62.4811 236.746 62.1046 236.746 61.6453C236.746 61.1784 237.068 60.8094 237.46 60.8094H259.466C259.865 60.8094 260.18 61.1859 260.18 61.6453C260.18 62.1046 259.865 62.4811 259.466 62.4811Z" fill="#719E1B"/>
<path d="M261.614 70.8626H235.311C234.913 70.8626 234.598 70.486 234.598 70.0267C234.598 69.5673 234.919 69.1908 235.311 69.1908H261.614C262.012 69.1908 262.328 69.5673 262.328 70.0267C262.328 70.486 262.012 70.8626 261.614 70.8626Z" fill="#719E1B"/>
<path d="M263.762 79.244H233.164C232.765 79.244 232.45 78.8674 232.45 78.4081C232.45 77.9412 232.772 77.5722 233.164 77.5722H263.762C264.161 77.5722 264.476 77.9487 264.476 78.4081C264.476 78.8674 264.154 79.244 263.762 79.244Z" fill="#719E1B"/>
<path d="M263.762 87.6253H233.164C232.765 87.6253 232.45 87.2488 232.45 86.7894C232.45 86.3225 232.772 85.9536 233.164 85.9536H263.762C264.161 85.9536 264.476 86.3301 264.476 86.7894C264.476 87.2488 264.154 87.6253 263.762 87.6253Z" fill="#719E1B"/>
<path d="M261.614 95.9992H235.311C234.913 95.9992 234.598 95.6227 234.598 95.1633C234.598 94.6964 234.919 94.3275 235.311 94.3275H261.614C262.012 94.3275 262.328 94.704 262.328 95.1633C262.328 95.6302 262.012 95.9992 261.614 95.9992Z" fill="#719E1B"/>
<path d="M259.466 104.381H237.46C237.061 104.381 236.746 104.004 236.746 103.545C236.746 103.078 237.068 102.709 237.46 102.709H259.466C259.865 102.709 260.18 103.085 260.18 103.545C260.18 104.012 259.865 104.381 259.466 104.381Z" fill="#719E1B"/>
<path d="M255.891 112.762H239.608C239.21 112.762 238.895 112.385 238.895 111.926C238.895 111.459 239.216 111.09 239.608 111.09H255.891C256.29 111.09 256.605 111.467 256.605 111.926C256.605 112.393 256.284 112.762 255.891 112.762Z" fill="#719E1B"/>
<path d="M248.675 30.763C248.489 45.5678 249.113 60.3727 249.196 75.1775C249.235 89.7414 249.119 105.021 248.675 119.592C248.611 120.993 246.83 121.053 246.746 119.592C246.103 97.4827 246.032 75.0721 246.592 52.9702C246.707 45.5678 246.842 38.1654 246.746 30.763C246.746 29.2945 248.656 29.2117 248.675 30.763Z" fill="#719E1B"/>
<path d="M399.306 84.3421C399.306 104.313 390.02 125.375 378.56 125.375C367.101 125.375 357.814 104.313 357.814 84.3421C357.814 54.0848 367.101 43.3087 378.56 43.3087C390.02 43.3087 399.306 54.0848 399.306 84.3421Z" fill="#8AC926"/>
<path d="M386.734 54.0999H370.451C370.052 54.0999 369.737 53.7233 369.737 53.264C369.737 52.7971 370.059 52.4281 370.451 52.4281H386.734C387.133 52.4281 387.448 52.8046 387.448 53.264C387.454 53.7233 387.133 54.0999 386.734 54.0999Z" fill="#719E1B"/>
<path d="M390.316 62.4811H368.31C367.911 62.4811 367.596 62.1046 367.596 61.6453C367.596 61.1784 367.917 60.8094 368.31 60.8094H390.316C390.715 60.8094 391.03 61.1859 391.03 61.6453C391.03 62.1046 390.708 62.4811 390.316 62.4811Z" fill="#719E1B"/>
<path d="M392.464 70.8625H366.162C365.763 70.8625 365.448 70.486 365.448 70.0266C365.448 69.5673 365.77 69.1907 366.162 69.1907H392.464C392.863 69.1907 393.178 69.5673 393.178 70.0266C393.178 70.486 392.857 70.8625 392.464 70.8625Z" fill="#719E1B"/>
<path d="M394.611 79.244H364.013C363.614 79.244 363.299 78.8674 363.299 78.4081C363.299 77.9412 363.62 77.5722 364.013 77.5722H394.611C395.009 77.5722 395.325 77.9487 395.325 78.4081C395.325 78.8674 395.003 79.244 394.611 79.244Z" fill="#719E1B"/>
<path d="M394.611 87.6253H364.013C363.614 87.6253 363.299 87.2488 363.299 86.7894C363.299 86.3225 363.62 85.9536 364.013 85.9536H394.611C395.009 85.9536 395.325 86.3301 395.325 86.7894C395.325 87.2488 395.003 87.6253 394.611 87.6253Z" fill="#719E1B"/>
<path d="M392.464 95.9991H366.162C365.763 95.9991 365.448 95.6226 365.448 95.1633C365.448 94.6964 365.77 94.3274 366.162 94.3274H392.464C392.863 94.3274 393.178 94.7039 393.178 95.1633C393.178 95.6302 392.857 95.9991 392.464 95.9991Z" fill="#719E1B"/>
<path d="M390.316 104.381H368.31C367.911 104.381 367.596 104.004 367.596 103.545C367.596 103.078 367.917 102.709 368.31 102.709H390.316C390.715 102.709 391.03 103.085 391.03 103.545C391.03 104.012 390.708 104.381 390.316 104.381Z" fill="#719E1B"/>
<path d="M386.734 112.762H370.451C370.052 112.762 369.737 112.385 369.737 111.926C369.737 111.459 370.059 111.09 370.451 111.09H386.734C387.133 111.09 387.448 111.467 387.448 111.926C387.454 112.393 387.133 112.762 386.734 112.762Z" fill="#719E1B"/>
<path d="M379.525 30.763C379.338 45.5678 379.962 60.3727 380.046 75.1775C380.084 89.7414 379.969 105.021 379.525 119.592C379.461 120.993 377.679 121.053 377.596 119.592C376.952 97.4827 376.882 75.0721 377.441 52.9702C377.557 45.5678 377.692 38.1654 377.596 30.763C377.596 29.2945 379.506 29.2117 379.525 30.763Z" fill="#719E1B"/>
<path d="M596.347 84.342C596.347 104.313 587.061 125.375 575.601 125.375C564.142 125.375 554.855 104.313 554.855 84.342C554.855 54.0847 564.142 43.3087 575.601 43.3087C587.061 43.3087 596.347 54.0847 596.347 84.342Z" fill="#8AC926"/>
<path d="M583.782 54.0999H567.499C567.1 54.0999 566.785 53.7233 566.785 53.264C566.785 52.7971 567.107 52.4281 567.499 52.4281H583.782C584.181 52.4281 584.496 52.8046 584.496 53.264C584.496 53.7233 584.174 54.0999 583.782 54.0999Z" fill="#719E1B"/>
<path d="M587.357 62.4811H565.351C564.952 62.4811 564.637 62.1046 564.637 61.6453C564.637 61.1784 564.958 60.8094 565.351 60.8094H587.357C587.756 60.8094 588.071 61.1859 588.071 61.6453C588.071 62.1046 587.756 62.4811 587.357 62.4811Z" fill="#719E1B"/>
<path d="M589.505 70.8626H563.203C562.804 70.8626 562.489 70.486 562.489 70.0267C562.489 69.5673 562.811 69.1908 563.203 69.1908H589.505C589.904 69.1908 590.219 69.5673 590.219 70.0267C590.219 70.486 589.904 70.8626 589.505 70.8626Z" fill="#719E1B"/>
<path d="M591.654 79.2439H561.056C560.657 79.2439 560.342 78.8674 560.342 78.408C560.342 77.9411 560.663 77.5721 561.056 77.5721H591.654C592.052 77.5721 592.368 77.9487 592.368 78.408C592.368 78.8674 592.046 79.2439 591.654 79.2439Z" fill="#719E1B"/>
<path d="M591.654 87.6253H561.056C560.657 87.6253 560.342 87.2488 560.342 86.7894C560.342 86.3225 560.663 85.9536 561.056 85.9536H591.654C592.052 85.9536 592.368 86.3301 592.368 86.7894C592.368 87.2488 592.046 87.6253 591.654 87.6253Z" fill="#719E1B"/>
<path d="M589.505 95.9992H563.203C562.804 95.9992 562.489 95.6227 562.489 95.1633C562.489 94.6964 562.811 94.3275 563.203 94.3275H589.505C589.904 94.3275 590.219 94.704 590.219 95.1633C590.219 95.6302 589.904 95.9992 589.505 95.9992Z" fill="#719E1B"/>
<path d="M587.357 104.381H565.351C564.952 104.381 564.637 104.004 564.637 103.545C564.637 103.078 564.958 102.709 565.351 102.709H587.357C587.756 102.709 588.071 103.085 588.071 103.545C588.071 104.012 587.756 104.381 587.357 104.381Z" fill="#719E1B"/>
<path d="M583.782 112.762H567.499C567.1 112.762 566.785 112.385 566.785 111.926C566.785 111.459 567.107 111.09 567.499 111.09H583.782C584.181 111.09 584.496 111.467 584.496 111.926C584.496 112.393 584.174 112.762 583.782 112.762Z" fill="#719E1B"/>
<path d="M576.567 30.763C576.38 45.5679 577.004 60.3727 577.088 75.1776C577.126 89.7414 577.011 105.021 576.567 119.592C576.502 120.993 574.721 121.053 574.638 119.592C573.994 97.4827 573.924 75.0721 574.483 52.9703C574.599 45.5679 574.734 38.1655 574.638 30.763C574.638 29.2946 576.548 29.2118 576.567 30.763Z" fill="#719E1B"/>
<path d="M596.347 233.995C596.347 253.965 587.061 275.028 575.601 275.028C564.142 275.028 554.855 253.965 554.855 233.995C554.855 203.737 564.142 192.961 575.601 192.961C587.061 192.961 596.347 203.737 596.347 233.995Z" fill="#8AC926"/>
<path d="M583.782 203.752H567.499C567.1 203.752 566.785 203.376 566.785 202.917C566.785 202.45 567.107 202.081 567.499 202.081H583.782C584.181 202.081 584.496 202.457 584.496 202.917C584.496 203.376 584.174 203.752 583.782 203.752Z" fill="#719E1B"/>
<path d="M587.357 212.134H565.351C564.952 212.134 564.637 211.757 564.637 211.298C564.637 210.839 564.958 210.462 565.351 210.462H587.357C587.756 210.462 588.071 210.839 588.071 211.298C588.071 211.757 587.756 212.134 587.357 212.134Z" fill="#719E1B"/>
<path d="M589.505 220.515H563.203C562.804 220.515 562.489 220.139 562.489 219.679C562.489 219.212 562.811 218.843 563.203 218.843H589.505C589.904 218.843 590.219 219.22 590.219 219.679C590.219 220.139 589.904 220.515 589.505 220.515Z" fill="#719E1B"/>
<path d="M591.654 228.896H561.056C560.657 228.896 560.342 228.52 560.342 228.061C560.342 227.594 560.663 227.225 561.056 227.225H591.654C592.052 227.225 592.368 227.601 592.368 228.061C592.368 228.52 592.046 228.896 591.654 228.896Z" fill="#719E1B"/>
<path d="M591.654 237.278H561.056C560.657 237.278 560.342 236.901 560.342 236.442C560.342 235.983 560.663 235.606 561.056 235.606H591.654C592.052 235.606 592.368 235.983 592.368 236.442C592.368 236.901 592.046 237.278 591.654 237.278Z" fill="#719E1B"/>
<path d="M589.505 245.659H563.203C562.804 245.659 562.489 245.283 562.489 244.823C562.489 244.357 562.811 243.988 563.203 243.988H589.505C589.904 243.988 590.219 244.364 590.219 244.823C590.219 245.283 589.904 245.659 589.505 245.659Z" fill="#719E1B"/>
<path d="M587.357 254.041H565.351C564.952 254.041 564.637 253.664 564.637 253.205C564.637 252.738 564.958 252.369 565.351 252.369H587.357C587.756 252.369 588.071 252.745 588.071 253.205C588.071 253.664 587.756 254.041 587.357 254.041Z" fill="#719E1B"/>
<path d="M583.782 262.422H567.499C567.1 262.422 566.785 262.045 566.785 261.586C566.785 261.127 567.107 260.75 567.499 260.75H583.782C584.181 260.75 584.496 261.127 584.496 261.586C584.496 262.045 584.174 262.422 583.782 262.422Z" fill="#719E1B"/>
<path d="M576.567 180.423C576.38 195.228 577.004 210.033 577.088 224.838C577.126 239.401 577.011 254.681 576.567 269.252C576.502 270.653 574.721 270.713 574.638 269.252C573.994 247.143 573.924 224.732 574.483 202.63C574.599 195.228 574.734 187.826 574.638 180.423C574.638 178.947 576.548 178.872 576.567 180.423Z" fill="#719E1B"/>
<path d="M596.347 533.307C596.347 553.278 587.061 574.34 575.601 574.34C564.142 574.34 554.855 553.278 554.855 533.307C554.855 503.05 564.142 492.274 575.601 492.274C587.061 492.274 596.347 503.05 596.347 533.307Z" fill="#8AC926"/>
<path d="M583.782 503.065H567.499C567.1 503.065 566.785 502.688 566.785 502.229C566.785 501.769 567.107 501.393 567.499 501.393H583.782C584.181 501.393 584.496 501.769 584.496 502.229C584.496 502.688 584.174 503.065 583.782 503.065Z" fill="#719E1B"/>
<path d="M587.357 511.446H565.351C564.952 511.446 564.637 511.07 564.637 510.61C564.637 510.151 564.958 509.774 565.351 509.774H587.357C587.756 509.774 588.071 510.151 588.071 510.61C588.071 511.07 587.756 511.446 587.357 511.446Z" fill="#719E1B"/>
<path d="M589.505 519.827H563.203C562.804 519.827 562.489 519.451 562.489 518.992C562.489 518.532 562.811 518.156 563.203 518.156H589.505C589.904 518.156 590.219 518.532 590.219 518.992C590.219 519.451 589.904 519.827 589.505 519.827Z" fill="#719E1B"/>
<path d="M591.654 528.209H561.056C560.657 528.209 560.342 527.832 560.342 527.373C560.342 526.914 560.663 526.537 561.056 526.537H591.654C592.052 526.537 592.368 526.914 592.368 527.373C592.368 527.832 592.046 528.209 591.654 528.209Z" fill="#719E1B"/>
<path d="M591.654 536.59H561.056C560.657 536.59 560.342 536.214 560.342 535.754C560.342 535.288 560.663 534.918 561.056 534.918H591.654C592.052 534.918 592.368 535.295 592.368 535.754C592.368 536.214 592.046 536.59 591.654 536.59Z" fill="#719E1B"/>
<path d="M589.505 544.972H563.203C562.804 544.972 562.489 544.595 562.489 544.136C562.489 543.676 562.811 543.3 563.203 543.3H589.505C589.904 543.3 590.219 543.676 590.219 544.136C590.219 544.595 589.904 544.972 589.505 544.972Z" fill="#719E1B"/>
<path d="M587.357 553.353H565.351C564.952 553.353 564.637 552.976 564.637 552.517C564.637 552.058 564.958 551.681 565.351 551.681H587.357C587.756 551.681 588.071 552.058 588.071 552.517C588.071 552.976 587.756 553.353 587.357 553.353Z" fill="#719E1B"/>
<path d="M583.782 561.734H567.499C567.1 561.734 566.785 561.358 566.785 560.898C566.785 560.432 567.107 560.063 567.499 560.063H583.782C584.181 560.063 584.496 560.439 584.496 560.898C584.496 561.358 584.174 561.734 583.782 561.734Z" fill="#719E1B"/>
<path d="M576.567 479.735C576.38 494.54 577.004 509.345 577.088 524.15C577.126 538.714 577.011 553.993 576.567 568.564C576.502 569.965 574.721 570.025 574.638 568.564C573.994 546.455 573.924 524.045 574.483 501.943C574.599 494.54 574.734 487.138 574.638 479.735C574.638 478.259 576.548 478.184 576.567 479.735Z" fill="#719E1B"/>
<path d="M464.727 533.307C464.727 553.278 455.441 574.34 443.981 574.34C432.522 574.34 423.235 553.278 423.235 533.307C423.235 503.05 432.522 492.274 443.981 492.274C455.441 492.274 464.727 503.05 464.727 533.307Z" fill="#8AC926"/>
<path d="M452.162 503.065H435.879C435.48 503.065 435.165 502.688 435.165 502.229C435.165 501.769 435.487 501.393 435.879 501.393H452.162C452.561 501.393 452.876 501.769 452.876 502.229C452.876 502.688 452.554 503.065 452.162 503.065Z" fill="#719E1B"/>
<path d="M455.737 511.446H433.73C433.332 511.446 433.017 511.07 433.017 510.61C433.017 510.151 433.338 509.774 433.73 509.774H455.737C456.136 509.774 456.451 510.151 456.451 510.61C456.451 511.07 456.136 511.446 455.737 511.446Z" fill="#719E1B"/>
<path d="M457.884 519.827H431.582C431.183 519.827 430.868 519.451 430.868 518.992C430.868 518.532 431.19 518.156 431.582 518.156H457.884C458.283 518.156 458.598 518.532 458.598 518.992C458.598 519.451 458.283 519.827 457.884 519.827Z" fill="#719E1B"/>
<path d="M460.033 528.209H429.435C429.036 528.209 428.721 527.832 428.721 527.373C428.721 526.914 429.042 526.537 429.435 526.537H460.033C460.431 526.537 460.746 526.914 460.746 527.373C460.746 527.832 460.431 528.209 460.033 528.209Z" fill="#719E1B"/>
<path d="M460.033 536.59H429.435C429.036 536.59 428.721 536.214 428.721 535.754C428.721 535.288 429.042 534.918 429.435 534.918H460.033C460.431 534.918 460.746 535.295 460.746 535.754C460.746 536.214 460.431 536.59 460.033 536.59Z" fill="#719E1B"/>
<path d="M457.884 544.972H431.582C431.183 544.972 430.868 544.595 430.868 544.136C430.868 543.676 431.19 543.3 431.582 543.3H457.884C458.283 543.3 458.598 543.676 458.598 544.136C458.598 544.595 458.283 544.972 457.884 544.972Z" fill="#719E1B"/>
<path d="M455.737 553.353H433.73C433.332 553.353 433.017 552.976 433.017 552.517C433.017 552.058 433.338 551.681 433.73 551.681H455.737C456.136 551.681 456.451 552.058 456.451 552.517C456.451 552.976 456.136 553.353 455.737 553.353Z" fill="#719E1B"/>
<path d="M452.162 561.734H435.879C435.48 561.734 435.165 561.358 435.165 560.898C435.165 560.432 435.487 560.063 435.879 560.063H452.162C452.561 560.063 452.876 560.439 452.876 560.898C452.876 561.358 452.554 561.734 452.162 561.734Z" fill="#719E1B"/>
<path d="M444.947 479.735C444.76 494.54 445.384 509.345 445.468 524.15C445.506 538.714 445.39 553.993 444.947 568.564C444.882 569.965 443.101 570.025 443.017 568.564C442.374 546.455 442.304 524.045 442.863 501.943C442.979 494.54 443.114 487.138 443.017 479.735C443.024 478.259 444.927 478.184 444.947 479.735Z" fill="#719E1B"/>
<path d="M399.306 682.967C399.306 702.937 390.02 724 378.56 724C367.101 724 357.814 702.937 357.814 682.967C357.814 652.709 367.101 641.933 378.56 641.933C390.02 641.933 399.306 652.709 399.306 682.967Z" fill="#8AC926"/>
<path d="M386.734 652.724H370.451C370.052 652.724 369.737 652.348 369.737 651.889C369.737 651.422 370.059 651.053 370.451 651.053H386.734C387.133 651.053 387.448 651.429 387.448 651.889C387.454 652.348 387.133 652.724 386.734 652.724Z" fill="#719E1B"/>
<path d="M390.316 661.098H368.31C367.911 661.098 367.596 660.722 367.596 660.262C367.596 659.803 367.917 659.426 368.31 659.426H390.316C390.715 659.426 391.03 659.803 391.03 660.262C391.03 660.722 390.708 661.098 390.316 661.098Z" fill="#719E1B"/>
<path d="M392.464 669.48H366.162C365.763 669.48 365.448 669.103 365.448 668.644C365.448 668.184 365.77 667.808 366.162 667.808H392.464C392.863 667.808 393.178 668.184 393.178 668.644C393.178 669.103 392.857 669.48 392.464 669.48Z" fill="#719E1B"/>
<path d="M394.611 677.861H364.013C363.614 677.861 363.299 677.484 363.299 677.025C363.299 676.558 363.62 676.189 364.013 676.189H394.611C395.009 676.189 395.325 676.566 395.325 677.025C395.325 677.492 395.003 677.861 394.611 677.861Z" fill="#719E1B"/>
<path d="M394.611 686.242H364.013C363.614 686.242 363.299 685.866 363.299 685.407C363.299 684.947 363.62 684.571 364.013 684.571H394.611C395.009 684.571 395.325 684.947 395.325 685.407C395.325 685.866 395.003 686.242 394.611 686.242Z" fill="#719E1B"/>
<path d="M392.464 694.624H366.162C365.763 694.624 365.448 694.247 365.448 693.788C365.448 693.329 365.77 692.952 366.162 692.952H392.464C392.863 692.952 393.178 693.329 393.178 693.788C393.178 694.247 392.857 694.624 392.464 694.624Z" fill="#719E1B"/>
<path d="M390.316 703.005H368.31C367.911 703.005 367.596 702.629 367.596 702.169C367.596 701.71 367.917 701.333 368.31 701.333H390.316C390.715 701.333 391.03 701.71 391.03 702.169C391.03 702.629 390.708 703.005 390.316 703.005Z" fill="#719E1B"/>
<path d="M386.734 711.386H370.451C370.052 711.386 369.737 711.01 369.737 710.551C369.737 710.091 370.059 709.715 370.451 709.715H386.734C387.133 709.715 387.448 710.091 387.448 710.551C387.448 711.01 387.133 711.386 386.734 711.386Z" fill="#719E1B"/>
<path d="M379.525 629.388C379.338 644.192 379.962 658.997 380.046 673.802C380.084 688.366 379.969 703.645 379.525 718.217C379.461 719.617 377.679 719.678 377.596 718.217C376.952 696.107 376.882 673.697 377.441 651.595C377.557 644.192 377.692 636.79 377.596 629.388C377.596 627.919 379.506 627.836 379.525 629.388Z" fill="#719E1B"/>
<path d="M317.447 111.52C325.807 108.651 334.676 100.028 334.656 88.9885C334.811 79.9294 329.01 71.3673 329.171 62.4061C329.068 53.1286 333.46 43.6628 330.939 34.4606C325.936 19.0759 312.303 31.7045 307.106 40.1838C297.801 53.7762 291.267 70.7649 291.64 88.2054C292.09 102.453 305.235 114.456 317.061 111.633L317.447 111.52Z" fill="#FB4202"/>
<path d="M311.119 85.163C307.131 86.5336 302.9 90.6452 302.913 95.909C302.836 100.231 305.607 104.313 305.53 108.59C305.582 113.018 303.485 117.529 304.688 121.919C307.073 129.254 313.575 123.237 316.051 119.193C320.488 112.709 323.607 104.607 323.427 96.293C323.215 89.5006 316.945 83.7699 311.299 85.1178L311.119 85.163Z" fill="#CDA466"/>
<path d="M448.29 111.52C456.65 108.651 465.518 100.028 465.499 88.9885C465.653 79.9294 459.853 71.3673 460.014 62.4061C459.911 53.1286 464.303 43.6628 461.782 34.4606C456.779 19.0759 443.145 31.7045 437.949 40.1838C428.644 53.7762 422.11 70.7649 422.483 88.2054C422.933 102.453 436.078 114.456 447.904 111.633L448.29 111.52Z" fill="#FB4202"/>
<path d="M441.961 85.163C437.974 86.5336 433.743 90.6452 433.755 95.909C433.678 100.231 436.45 104.313 436.373 108.59C436.424 113.018 434.328 117.529 435.53 121.919C437.916 129.254 444.418 123.237 446.894 119.193C451.331 112.709 454.45 104.607 454.27 96.293C454.058 89.5006 447.788 83.7699 442.141 85.1178L441.961 85.163Z" fill="#CDA466"/>
<path d="M320.444 2.25913H6.96463C6.43087 2.25913 6 1.75459 6 1.12957C6 0.504539 6.43087 0 6.96463 0H320.444C320.978 0 321.408 0.504539 321.408 1.12957C321.408 1.75459 320.978 2.25913 320.444 2.25913Z" fill="#719E1B"/>
<path d="M645.332 261.172C653.692 258.303 662.56 249.68 662.541 238.641C662.695 229.582 656.895 221.02 657.056 212.058C656.953 202.781 661.345 193.315 658.824 184.113C653.821 168.728 640.187 181.357 634.991 189.836C625.686 203.429 619.152 220.417 619.525 237.858C619.975 252.105 633.12 264.109 644.946 261.285L645.332 261.172Z" fill="#FB4202"/>
<path d="M639.01 234.823C635.023 236.193 630.791 240.305 630.804 245.569C630.727 249.891 633.499 253.973 633.422 258.25C633.473 262.678 631.377 267.189 632.579 271.579C634.965 278.914 641.467 272.897 643.943 268.853C648.38 262.369 651.499 254.267 651.319 245.953C651.107 239.16 644.837 233.43 639.19 234.778L639.01 234.823Z" fill="#CDA466"/>
<path d="M317.447 261.172C325.807 258.303 334.676 249.68 334.656 238.641C334.811 229.582 329.01 221.02 329.171 212.058C329.068 202.781 333.46 193.315 330.939 184.113C325.936 168.728 312.303 181.357 307.106 189.836C297.801 203.429 291.267 220.417 291.64 237.858C292.09 252.105 305.235 264.109 317.061 261.285L317.447 261.172Z" fill="#FEAA24"/>
<path d="M311.119 234.823C307.131 236.194 302.9 240.305 302.913 245.569C302.836 249.891 305.607 253.973 305.53 258.25C305.582 262.678 303.485 267.189 304.688 271.579C307.073 278.914 313.575 272.897 316.051 268.853C320.488 262.369 323.607 254.267 323.427 245.953C323.215 239.161 316.945 233.43 311.299 234.778L311.119 234.823Z" fill="#CDA466"/>
<path d="M382.868 261.172C391.228 258.303 400.096 249.68 400.077 238.641C400.232 229.582 394.431 221.02 394.592 212.058C394.489 202.781 398.881 193.315 396.36 184.113C391.357 168.728 377.723 181.357 372.527 189.836C363.222 203.429 356.688 220.417 357.061 237.858C357.511 252.105 370.656 264.109 382.482 261.285L382.868 261.172Z" fill="#FB4202"/>
<path d="M376.54 234.823C372.553 236.194 368.322 240.305 368.335 245.569C368.257 249.891 371.029 253.973 370.952 258.25C371.003 262.678 368.907 267.189 370.11 271.579C372.495 278.914 378.997 272.897 381.473 268.853C385.91 262.369 389.029 254.267 388.849 245.953C388.637 239.161 382.367 233.43 376.72 234.778L376.54 234.823Z" fill="#CDA466"/>
<path d="M252.02 261.172C260.38 258.303 269.248 249.68 269.229 238.641C269.383 229.582 263.582 221.02 263.743 212.058C263.64 202.781 268.032 193.315 265.512 184.113C260.508 168.728 246.875 181.357 241.679 189.836C232.373 203.429 225.839 220.417 226.212 237.858C226.663 252.105 239.807 264.109 251.634 261.285L252.02 261.172Z" fill="#FB4202"/>
<path d="M245.691 234.823C241.704 236.194 237.472 240.305 237.485 245.569C237.408 249.891 240.18 253.973 240.102 258.25C240.154 262.678 238.057 267.189 239.26 271.579C241.646 278.914 248.147 272.897 250.623 268.853C255.061 262.369 258.18 254.267 257.999 245.953C257.787 239.161 251.517 233.43 245.871 234.778L245.691 234.823Z" fill="#CDA466"/>
<path d="M252.02 560.484C260.38 557.615 269.248 548.993 269.229 537.953C269.383 528.894 263.582 520.332 263.743 511.371C263.64 502.093 268.032 492.628 265.512 483.425C260.508 468.041 246.875 480.669 241.679 489.148C232.373 502.741 225.839 519.73 226.212 537.17C226.663 551.418 239.807 563.421 251.634 560.597L252.02 560.484Z" fill="#FB4202"/>
<path d="M245.691 534.135C241.704 535.506 237.472 539.617 237.485 544.881C237.408 549.204 240.18 553.285 240.102 557.562C240.154 561.99 238.057 566.501 239.26 570.891C241.646 578.226 248.147 572.209 250.623 568.165C255.061 561.682 258.18 553.579 257.999 545.265C257.787 538.473 251.517 532.742 245.871 534.09L245.691 534.135Z" fill="#CDA466"/>
<path d="M712.381 260.131C720.741 257.261 729.609 248.639 729.59 237.599C729.744 228.54 723.944 219.978 724.104 211.017C724.001 201.74 728.394 192.274 725.873 183.072C720.87 167.687 707.236 180.315 702.04 188.795C692.735 202.387 686.201 219.376 686.574 236.816C687.024 251.064 700.169 263.067 711.995 260.244L712.381 260.131Z" fill="#FB4202"/>
<path d="M706.053 233.782C702.066 235.152 697.834 239.264 697.847 244.528C697.77 248.85 700.542 252.932 700.465 257.209C700.516 261.637 698.42 266.148 699.622 270.538C702.008 277.872 708.51 271.856 710.986 267.812C715.423 261.328 718.542 253.225 718.362 244.912C718.15 238.119 711.879 232.389 706.233 233.737L706.053 233.782Z" fill="#CDA466"/>
<path d="M712.381 260.131C720.741 257.261 729.609 248.639 729.59 237.599C729.744 228.54 723.944 219.978 724.104 211.017C724.001 201.74 728.394 192.274 725.873 183.072C720.87 167.687 707.236 180.315 702.04 188.795C692.735 202.387 686.201 219.376 686.574 236.816C687.024 251.064 700.169 263.067 711.995 260.244L712.381 260.131Z" fill="#FEAA24"/>
<path d="M706.053 233.782C702.066 235.152 697.834 239.264 697.847 244.528C697.77 248.85 700.542 252.932 700.465 257.209C700.516 261.637 698.42 266.148 699.622 270.538C702.008 277.872 708.51 271.856 710.986 267.812C715.423 261.328 718.542 253.225 718.362 244.912C718.15 238.119 711.879 232.389 706.233 233.737L706.053 233.782Z" fill="#CDA466"/>
<path d="M317.447 560.484C325.807 557.615 334.676 548.993 334.656 537.953C334.811 528.894 329.01 520.332 329.171 511.371C329.068 502.093 333.46 492.628 330.939 483.425C325.936 468.041 312.303 480.669 307.106 489.149C297.801 502.741 291.267 519.73 291.64 537.17C292.09 551.418 305.235 563.421 317.061 560.597L317.447 560.484Z" fill="#FEAA24"/>
<path d="M311.119 534.135C307.131 535.506 302.9 539.617 302.913 544.881C302.836 549.204 305.607 553.285 305.53 557.562C305.582 561.99 303.485 566.501 304.688 570.891C307.073 578.226 313.575 572.209 316.051 568.165C320.488 561.682 323.607 553.579 323.427 545.265C323.215 538.473 316.945 532.742 311.299 534.09L311.119 534.135Z" fill="#CDA466"/>
<path d="M514.489 560.484C522.849 557.615 531.718 548.993 531.698 537.953C531.853 528.894 526.052 520.332 526.213 511.371C526.11 502.093 530.502 492.628 527.981 483.425C522.978 468.041 509.345 480.669 504.148 489.149C494.843 502.741 488.309 519.73 488.682 537.17C489.132 551.418 502.277 563.421 514.103 560.597L514.489 560.484Z" fill="#FB4202"/>
<path d="M508.161 534.135C504.173 535.506 499.942 539.617 499.955 544.881C499.878 549.204 502.649 553.285 502.572 557.562C502.624 561.99 500.527 566.501 501.73 570.891C504.115 578.226 510.617 572.209 513.093 568.165C517.53 561.682 520.649 553.579 520.469 545.265C520.257 538.473 513.987 532.742 508.341 534.09L508.161 534.135Z" fill="#CDA466"/>
<path d="M777.724 560.484C786.084 557.615 794.952 548.993 794.933 537.953C795.087 528.894 789.286 520.332 789.447 511.371C789.344 502.093 793.737 492.628 791.216 483.425C786.212 468.041 772.579 480.669 767.383 489.149C758.077 502.741 751.544 519.73 751.917 537.17C752.367 551.418 765.511 563.421 777.338 560.597L777.724 560.484Z" fill="#FB4202"/>
<path d="M771.403 534.135C767.416 535.506 763.184 539.617 763.197 544.881C763.12 549.204 765.891 553.285 765.814 557.562C765.866 561.99 763.769 566.501 764.972 570.891C767.358 578.226 773.859 572.209 776.335 568.165C780.772 561.682 783.891 553.579 783.711 545.265C783.499 538.473 777.229 532.742 771.583 534.09L771.403 534.135Z" fill="#CDA466"/>
<path d="M771.403 534.135C767.416 535.506 763.184 539.617 763.197 544.881C763.12 549.204 765.891 553.285 765.814 557.562C765.866 561.99 763.769 566.501 764.972 570.891C767.358 578.226 773.859 572.209 776.335 568.165C780.772 561.682 783.891 553.579 783.711 545.265C783.499 538.473 777.229 532.742 771.583 534.09L771.403 534.135Z" fill="#CDA466"/>
<path d="M711.531 560.484C719.891 557.615 728.76 548.993 728.74 537.953C728.895 528.894 723.094 520.332 723.255 511.371C723.152 502.093 727.544 492.628 725.023 483.425C720.02 468.041 706.387 480.669 701.19 489.149C691.885 502.741 685.351 519.73 685.724 537.17C686.174 551.418 699.319 563.421 711.145 560.597L711.531 560.484Z" fill="#FB4202"/>
<path d="M705.202 534.135C701.215 535.506 696.984 539.617 696.997 544.881C696.92 549.204 699.691 553.285 699.614 557.562C699.665 561.99 697.569 566.501 698.772 570.891C701.157 578.226 707.659 572.209 710.135 568.165C714.572 561.682 717.691 553.579 717.511 545.265C717.299 538.473 711.029 532.742 705.383 534.09L705.202 534.135Z" fill="#CDA466"/>
<path d="M711.531 560.484C719.891 557.615 728.76 548.993 728.74 537.953C728.895 528.894 723.094 520.332 723.255 511.371C723.152 502.093 727.544 492.628 725.023 483.425C720.02 468.041 706.387 480.669 701.19 489.149C691.885 502.741 685.351 519.73 685.724 537.17C686.174 551.418 699.319 563.421 711.145 560.597L711.531 560.484Z" fill="#FEAA24"/>
<path d="M705.202 534.135C701.215 535.506 696.984 539.617 696.997 544.881C696.92 549.204 699.691 553.285 699.614 557.562C699.665 561.99 697.569 566.501 698.772 570.891C701.157 578.226 707.659 572.209 710.135 568.165C714.572 561.682 717.691 553.579 717.511 545.265C717.299 538.473 711.029 532.742 705.383 534.09L705.202 534.135Z" fill="#CDA466"/>
<path d="M317.447 710.144C325.807 707.275 334.676 698.653 334.656 687.613C334.811 678.554 329.01 669.992 329.171 661.031C329.068 651.753 333.46 642.288 330.939 633.085C325.936 617.701 312.303 630.329 307.106 638.809C297.801 652.401 291.267 669.39 291.64 686.83C292.09 701.078 305.235 713.081 317.061 710.257L317.447 710.144Z" fill="#FB4202"/>
<path d="M311.119 683.788C307.131 685.158 302.9 689.27 302.913 694.534C302.836 698.856 305.607 702.938 305.53 707.215C305.582 711.643 303.485 716.154 304.688 720.544C307.073 727.878 313.575 721.862 316.051 717.818C320.488 711.334 323.607 703.231 323.427 694.918C323.215 688.125 316.945 682.395 311.299 683.743L311.119 683.788Z" fill="#CDA466"/>
<path d="M448.29 710.144C456.65 707.275 465.518 698.653 465.499 687.613C465.653 678.554 459.853 669.992 460.014 661.031C459.911 651.753 464.303 642.288 461.782 633.085C456.779 617.701 443.145 630.329 437.949 638.809C428.644 652.401 422.11 669.39 422.483 686.83C422.933 701.078 436.078 713.081 447.904 710.257L448.29 710.144Z" fill="#FB4202"/>
<path d="M441.961 683.788C437.974 685.158 433.743 689.27 433.755 694.534C433.678 698.856 436.45 702.938 436.373 707.215C436.424 711.643 434.328 716.154 435.53 720.544C437.916 727.878 444.418 721.862 446.894 717.818C451.331 711.334 454.45 703.231 454.27 694.918C454.058 688.125 447.788 682.395 442.141 683.743L441.961 683.788Z" fill="#CDA466"/>
<path d="M579.91 710.144C588.27 707.275 597.138 698.653 597.119 687.613C597.274 678.554 591.473 669.992 591.634 661.031C591.531 651.753 595.923 642.288 593.402 633.085C588.399 617.701 574.765 630.329 569.569 638.809C560.264 652.401 553.73 669.39 554.103 686.83C554.553 701.078 567.698 713.081 579.524 710.257L579.91 710.144Z" fill="#FB4202"/>
<path d="M573.582 683.788C569.595 685.158 565.364 689.27 565.377 694.534C565.299 698.856 568.071 702.938 567.994 707.215C568.045 711.643 565.949 716.154 567.152 720.544C569.537 727.878 576.039 721.862 578.515 717.818C582.952 711.334 586.071 703.231 585.891 694.918C585.679 688.125 579.409 682.395 573.762 683.743L573.582 683.788Z" fill="#CDA466"/>
<path d="M252.02 710.144C260.38 707.275 269.248 698.653 269.229 687.613C269.383 678.554 263.582 669.992 263.743 661.031C263.64 651.753 268.032 642.288 265.512 633.085C260.508 617.701 246.875 630.329 241.679 638.809C232.373 652.401 225.839 669.39 226.212 686.83C226.663 701.078 239.807 713.081 251.634 710.257L252.02 710.144Z" fill="#FEAA24"/>
<path d="M245.691 683.788C241.704 685.158 237.472 689.27 237.485 694.534C237.408 698.856 240.18 702.938 240.102 707.215C240.154 711.643 238.057 716.154 239.26 720.544C241.646 727.878 248.147 721.862 250.623 717.818C255.061 711.334 258.18 703.231 257.999 694.918C257.787 688.125 251.517 682.395 245.871 683.743L245.691 683.788Z" fill="#CDA466"/>
</svg>
