<svg viewBox="0 0 212 482" xmlns="http://www.w3.org/2000/svg"  preserveAspectRatio="xMidYMid meet">
  <g transform="scale(0.7) translate(30 50)">
  <path 
    d="M127.004 413.678C167.968 399.62 211.421 357.371 211.326 303.279C212.082 258.89 183.66 216.937 184.448 173.028C183.944 127.57 205.465 81.1888 193.113 36.0993C168.598 -39.2836 101.796 22.5945 76.3357 64.1418C30.7401 130.743 -1.27466 213.985 0.552942 299.441C2.75867 369.253 67.1661 428.068 125.114 414.231L127.004 413.678Z" 
    fill="none" 
    stroke="#FFFFFF" 
    stroke-width="15"
  />
  <!-- <path 
    d="M95.9983 284.571C76.4618 291.286 55.7279 311.433 55.791 337.224C55.4128 358.404 68.9937 378.403 68.6155 399.361C68.8676 421.057 58.5954 443.159 64.4879 464.671C76.1782 500.609 108.035 471.128 120.167 451.313C141.909 419.544 157.192 379.842 156.309 339.106C155.269 305.824 124.547 277.745 96.8807 284.349L95.9983 284.571Z" 
    fill="#FFFFFF" 
    stroke="#FFFFFF" 
    stroke-width="15"
  /> -->
  </g>
</svg>