<svg  viewBox="0 0 1652 264" fill="#FFFFFF" xmlns="http://www.w3.org/2000/svg">
<path d="M332.768 263.565C313.168 263.565 298.705 258.067 289.346 247.108C279.988 236.15 275.293 219.176 275.293 196.263V127.153C275.293 104.017 279.956 86.9704 289.283 76.0117C298.61 65.0529 313.011 59.6658 332.516 59.8503H363.554C379.624 59.8503 391.913 63.7246 400.389 71.5101C408.865 79.2956 413.781 91.5089 415.136 108.224C415.64 112.43 414.979 115.64 413.088 117.854C411.197 120.068 408.456 121.175 404.864 121.175C398.373 121.175 394.591 116.969 393.583 108.556C392.732 99.3313 390.022 93.1324 385.422 89.9223C380.853 86.7121 373.542 85.1255 363.554 85.1255H332.516C323.441 85.0148 316.32 86.2325 311.152 88.7415C305.984 91.2506 302.297 95.5677 300.123 101.73C297.949 107.892 296.846 116.378 296.846 127.189V196.3C296.846 207 297.949 215.413 300.123 221.538C302.297 227.663 306.016 231.98 311.215 234.526C316.446 237.072 323.63 238.364 332.768 238.364H363.554C373.574 238.364 380.853 236.74 385.422 233.493C389.991 230.246 392.701 224.047 393.583 214.933C394.623 206.52 398.373 202.314 404.864 202.314C408.456 202.314 411.197 203.421 413.088 205.635C414.979 207.849 415.64 211.059 415.136 215.265C413.781 232.091 408.834 244.378 400.389 252.09C391.944 259.801 379.656 263.639 363.554 263.639H332.768V263.565Z" fill="#FFFFFF"/>
<path d="M451.845 262.385C445.007 259.285 442.959 253.787 445.7 245.854L506.767 69.7762C509.32 63.1714 513.353 59.8506 518.836 59.8506H519.34C524.886 60.1458 528.667 63.4666 530.621 69.7762L592.728 245.854C595.469 253.75 593.484 259.285 586.836 262.385C580.092 265.484 575.366 263.196 572.719 255.485L558.854 216.114H478.912L465.709 255.485C463.031 263.27 458.43 265.558 451.845 262.385ZM487.389 190.876H550L518.048 99.8482L487.389 190.876Z" fill="#FFFFFF"/>
<path d="M664.793 263.565C648.786 263.565 636.56 259.691 628.021 251.905C619.513 244.157 614.471 232.017 612.959 215.487C612.612 211.28 613.4 208.033 615.259 205.709C617.15 203.421 619.891 202.24 623.483 202.24C630.069 202.24 633.756 206.447 634.512 214.859C635.552 223.973 638.325 230.172 642.862 233.419C647.4 236.666 654.71 238.29 664.793 238.29H686.094C694.035 238.29 700.274 237.257 704.748 235.153C709.223 233.05 712.374 229.397 714.17 224.195C715.966 218.992 716.849 211.686 716.849 202.24V72.4326C716.849 64.0199 720.441 59.8135 727.625 59.8135C734.809 59.8135 738.402 64.0199 738.402 72.4326V202.24C738.402 223.383 734.179 238.88 725.703 248.732C717.227 258.584 704.024 263.528 686.063 263.528H664.793V263.565Z" fill="#FFFFFF"/>
<path d="M846.735 263.565C827.135 263.565 812.672 258.067 803.313 247.109C793.955 236.15 789.26 219.177 789.26 196.263V72.4697C789.26 68.2634 790.174 65.0901 791.97 62.9869C793.766 60.8837 796.444 59.8506 800.036 59.8506C803.628 59.8506 806.307 60.8837 808.103 62.9869C809.899 65.0901 810.781 68.2634 810.781 72.4697V196.263C810.781 206.964 811.884 215.376 814.058 221.501C816.233 227.626 819.951 231.944 825.15 234.49C830.381 237.035 837.565 238.327 846.703 238.327H877.489C886.627 238.327 893.811 237.035 899.042 234.49C904.273 231.944 907.959 227.59 910.134 221.501C912.308 215.376 913.411 206.964 913.411 196.263V72.4697C913.411 68.2634 914.325 65.0901 916.121 62.9869C917.917 60.8837 920.595 59.8506 924.187 59.8506C927.78 59.8506 930.489 60.8837 932.285 62.9869C934.081 65.0901 934.995 68.2634 934.995 72.4697V196.263C934.995 219.214 930.332 236.15 921.005 247.109C911.678 258.067 897.183 263.565 877.52 263.565H846.735Z" fill="#FFFFFF"/>
<path d="M1036.49 263.787C1016.95 263.787 1002.77 258.621 993.92 248.253C985.066 237.884 980.654 221.28 980.654 198.403V125.271C980.654 102.173 985.066 85.5319 993.92 75.2742C1002.77 65.0165 1016.86 59.8877 1036.21 59.8877H1069.48C1086.28 59.8877 1098.63 63.9834 1106.63 72.1379C1114.61 80.2924 1118.92 93.5019 1119.55 111.766C1119.74 114.017 1119.33 115.751 1118.39 117.006C1117.41 118.261 1115.99 118.851 1114.04 118.851C1110.29 118.851 1108.27 116.6 1107.99 112.099C1107.45 97.5976 1104.24 87.5244 1098.44 81.9159C1092.61 76.2704 1082.97 73.4662 1069.48 73.4662H1036.21C1025.4 73.4662 1016.77 75.1266 1010.34 78.4475C1003.91 81.7683 999.277 87.2292 996.441 94.7933C993.605 102.357 992.187 112.541 992.187 125.308V198.44C992.187 211.096 993.636 221.243 996.504 228.807C999.403 236.371 1004.07 241.869 1010.53 245.227C1016.99 248.622 1025.62 250.319 1036.46 250.319H1069.48C1082.97 250.319 1092.61 247.515 1098.44 241.869C1104.27 236.224 1107.45 226.151 1107.99 211.687C1108.27 207.185 1110.29 204.934 1114.04 204.934C1115.96 204.934 1117.41 205.562 1118.39 206.779C1119.36 207.997 1119.74 209.768 1119.55 212.019C1118.92 230.173 1114.61 243.345 1106.63 251.574C1098.66 259.802 1086.28 263.898 1069.48 263.898H1036.49V263.787Z" fill="#FFFFFF"/>
<path d="M1216.67 263.787C1197.13 263.787 1182.95 258.621 1174.1 248.253C1165.24 237.884 1160.83 221.28 1160.83 198.403V125.271C1160.83 102.173 1165.24 85.4582 1174.1 75.0898C1182.95 64.7215 1197.04 59.6664 1216.38 59.8878H1249.66C1269.19 59.8878 1283.37 65.0536 1292.23 75.4219C1301.08 85.7903 1305.49 102.394 1305.49 125.271V198.403C1305.49 221.28 1301.05 237.884 1292.23 248.253C1283.37 258.621 1269.19 263.787 1249.66 263.787H1216.67ZM1216.67 250.245H1249.69C1260.5 250.245 1269.16 248.548 1275.62 245.153C1282.08 241.759 1286.75 236.298 1289.64 228.734C1292.54 221.17 1293.96 211.059 1293.96 198.367V125.234C1293.96 112.578 1292.51 102.431 1289.64 94.8673C1286.75 87.3031 1282.08 81.8053 1275.62 78.4476C1269.16 75.053 1260.53 73.3925 1249.69 73.3925H1216.41C1205.61 73.2818 1196.97 74.9053 1190.54 78.2262C1184.12 81.547 1179.48 87.0449 1176.65 94.6459C1173.81 102.284 1172.39 112.468 1172.39 125.234V198.367C1172.39 211.023 1173.84 221.17 1176.71 228.734C1179.61 236.298 1184.27 241.796 1190.73 245.153C1197.19 248.548 1205.83 250.245 1216.67 250.245Z" fill="FFFFFF"/>
<path d="M1358.06 263.787C1354.21 263.787 1352.29 261.536 1352.29 257.034V66.64C1352.29 62.1385 1354.21 59.8877 1358.06 59.8877H1424.35C1446.82 59.8877 1463.11 65.8283 1473.26 77.6726C1483.4 89.5538 1488.45 108.63 1488.45 134.939V188.736C1488.45 214.934 1483.37 234.01 1473.26 245.928C1463.11 257.846 1446.82 263.824 1424.35 263.824H1358.06V263.787ZM1363.85 250.245H1424.38C1437.12 250.245 1447.36 248.216 1455.04 244.194C1462.73 240.172 1468.31 233.641 1471.74 224.638C1475.18 215.635 1476.91 203.643 1476.91 188.736V134.939C1476.91 120.032 1475.18 108.04 1471.74 99.0366C1468.31 90.0335 1462.73 83.5025 1455.04 79.4806C1447.36 75.4587 1437.12 73.4293 1424.38 73.4293H1363.85V250.245Z" fill="FFFFFF"/>
<path d="M1541 263.787C1537.16 263.787 1535.24 261.536 1535.24 257.035V66.64C1535.24 62.1385 1537.16 59.8877 1541 59.8877H1645.56C1649.4 59.8877 1651.32 62.1385 1651.32 66.64C1651.32 71.1416 1649.4 73.3924 1645.56 73.3924H1546.8V153.609H1613.1C1616.94 153.609 1618.87 155.86 1618.87 160.361C1618.87 164.863 1616.94 167.114 1613.1 167.114H1546.8V250.208H1645.56C1649.4 250.208 1651.32 252.459 1651.32 256.961C1651.32 261.462 1649.4 263.713 1645.56 263.713H1541V263.787Z" fill="#FFFFFF"/>
<path d="M115.22 102.468C125.366 98.9998 136.111 88.5208 136.08 75.1267C136.269 64.1311 129.242 53.7627 129.431 42.8778C129.305 31.6238 134.63 20.1485 131.574 8.96835C125.492 -9.70211 108.949 5.61061 102.679 15.9052C91.398 32.3987 83.4575 52.9878 83.9302 74.1674C84.4659 91.4357 100.41 106.01 114.779 102.579L115.22 102.468Z" fill="#FFFFFF"/>
<path d="M216.022 99.7011L215.455 99.0369L176.193 60.2938C174.838 58.781 173.136 58.0799 171.372 58.3382C169.229 58.6334 167.244 60.3307 165.92 62.9505C163.242 68.3376 165.983 71.5478 167.968 73.8724L201.023 107.413L168.095 141.433L167.968 141.58C166.676 143.093 164.912 145.196 164.849 148.111C164.817 148.443 164.754 148.812 164.754 149.145V200.654C164.754 212.093 163.462 221.317 160.879 228.033C158.358 234.638 154.387 239.287 148.747 242.239C143.012 245.264 135.134 246.777 125.366 246.777H94.6436C84.8754 246.777 76.998 245.264 71.2631 242.239C65.6227 239.287 61.6525 234.638 59.1317 228.033C56.5478 221.317 55.2556 212.093 55.2556 200.654V149.145C55.2556 148.776 55.1928 148.443 55.1613 148.111C55.0983 145.16 53.3021 143.056 51.9472 141.47L18.987 107.376L51.9472 73.9092L52.0418 73.7985C54.027 71.474 56.7681 68.2638 54.0897 62.8767C52.7663 60.2569 50.7812 58.5596 48.6385 58.2644C46.8739 58.0061 45.1722 58.7072 43.8173 60.22L4.71311 98.7786L3.95689 99.6273C2.19231 101.657 0.679688 103.428 0.679688 107.228C0.679688 111.472 2.41281 113.501 4.27192 115.641L4.55541 115.973L40.8555 152.207V200.691C40.8555 222.461 45.2038 238.586 53.7431 248.585C62.2824 258.584 76.0524 263.676 94.6436 263.676H125.366C143.957 263.676 157.728 258.584 166.267 248.585C174.806 238.586 179.155 222.461 179.155 200.691V152.207L215.297 116.158L215.738 115.678C217.597 113.538 219.331 111.508 219.331 107.265C219.299 103.502 217.786 101.73 216.022 99.7011Z" fill="#FFFFFF"/>
</svg>
